<svg width="1334" height="811" viewBox="0 0 1334 811" fill="none" xmlns="http://www.w3.org/2000/svg">
<g filter="url(#filter0_b_131_261)">
<path d="M619.106 811C277.183 811 2.75142e-05 629.451 1.7725e-05 405.5C7.93574e-06 181.549 277.183 4.61949e-05 619.106 3.1249e-05C961.028 1.63031e-05 906.604 156.029 1238.21 405.5C1569.82 654.971 961.028 811 619.106 811Z" fill="url(#paint0_linear_131_261)" fill-opacity="0.04"/>
<path d="M619.106 809.5C448.394 809.5 293.913 764.176 182.154 690.977C70.3821 617.769 1.50002 516.806 1.50002 405.5C1.50001 294.194 70.3821 193.231 182.154 120.023C293.912 46.8237 448.394 1.50004 619.106 1.50003C704.481 1.50003 764.99 11.2415 812.919 29.6776C860.824 48.1046 896.268 75.258 931.469 110.262C950.972 129.656 970.41 151.479 991.853 175.552C1047.8 238.357 1117.38 316.472 1237.31 406.699C1320.06 468.953 1343.51 524.886 1328.02 573.651C1320.25 598.141 1302.6 621.068 1277.24 642.283C1251.89 663.493 1218.9 682.924 1180.61 700.437C1027.37 770.514 789.92 809.5 619.106 809.5Z" stroke="white" stroke-opacity="0.12" stroke-width="3"/>
</g>
<defs>
<filter id="filter0_b_131_261" x="-40" y="-40" width="1414" height="891" filterUnits="userSpaceOnUse" color-interpolation-filters="sRGB">
<feFlood flood-opacity="0" result="BackgroundImageFix"/>
<feGaussianBlur in="BackgroundImageFix" stdDeviation="20"/>
<feComposite in2="SourceAlpha" operator="in" result="effect1_backgroundBlur_131_261"/>
<feBlend mode="normal" in="SourceGraphic" in2="effect1_backgroundBlur_131_261" result="shape"/>
</filter>
<linearGradient id="paint0_linear_131_261" x1="0" y1="5.8311e-05" x2="3.54499e-05" y2="811" gradientUnits="userSpaceOnUse">
<stop stop-color="#FF59F8"/>
<stop offset="0.197917" stop-color="#AE72FF"/>
<stop offset="0.40625" stop-color="#90E9ED"/>
<stop offset="0.619792" stop-color="#5CD167"/>
<stop offset="0.825321" stop-color="#FFEE00"/>
</linearGradient>
</defs>
</svg>
