<svg width="1256" height="921" fill="none" xmlns="http://www.w3.org/2000/svg"><g filter="url(#filter0_b_131_234)"><path d="M673 920.5c321.706 0 582.5-205.949 582.5-460S994.706.5 673 .5s-270.5 177-582.5 460 260.794 460 582.5 460z" fill="url(#paint0_linear_131_234)" fill-opacity=".2"/><path d="M673 919c321.227 0 581-205.588 581-458.5S994.227 2 673 2c-80.296 0-137.179 11.046-182.229 31.939-45.037 20.887-78.379 51.675-111.509 91.397-18.353 22.004-36.644 46.763-56.82 74.073-52.635 71.245-118.095 159.851-230.934 262.202C13.708 532.18-8.546 595.767 6.1 651.384c14.69 55.778 66.63 104.171 138.734 143.927C288.97 874.784 512.33 919 673 919z" stroke="#fff" stroke-opacity=".12" stroke-width="3"/></g><defs><linearGradient id="paint0_linear_131_234" x1="650.873" y1="68" x2="780.449" y2="1502.77" gradientUnits="userSpaceOnUse"><stop stop-color="#7421B0"/><stop offset=".46" stop-color="#D08EFF"/></linearGradient><filter id="filter0_b_131_234" x="-39.626" y="-39.5" width="1335.13" height="1000" filterUnits="userSpaceOnUse" color-interpolation-filters="sRGB"><feFlood flood-opacity="0" result="BackgroundImageFix"/><feGaussianBlur in="BackgroundImageFix" stdDeviation="20"/><feComposite in2="SourceAlpha" operator="in" result="effect1_backgroundBlur_131_234"/><feBlend in="SourceGraphic" in2="effect1_backgroundBlur_131_234" result="shape"/></filter></defs></svg>