<svg width="1334" height="811" fill="none" xmlns="http://www.w3.org/2000/svg"><g filter="url(#filter0_b_131_261)"><path d="M619.106 811C277.183 811 0 629.451 0 405.5S277.183 0 619.106 0c341.922 0 287.498 156.029 619.104 405.5C1569.82 654.971 961.028 811 619.106 811z" fill="url(#paint0_linear_131_261)" fill-opacity=".04"/><path d="M619.106 809.5c-170.712 0-325.193-45.324-436.952-118.523C70.382 617.769 1.5 516.806 1.5 405.5c0-111.306 68.882-212.269 180.654-285.477C293.912 46.823 448.394 1.5 619.106 1.5c85.375 0 145.884 9.742 193.813 28.178 47.905 18.427 83.349 45.58 118.55 80.584 19.503 19.394 38.941 41.217 60.384 65.29 55.947 62.805 125.527 140.92 245.457 231.147 82.75 62.254 106.2 118.187 90.71 166.952-7.77 24.49-25.42 47.417-50.78 68.632-25.35 21.21-58.34 40.641-96.63 58.154C1027.37 770.514 789.92 809.5 619.106 809.5z" stroke="#fff" stroke-opacity=".12" stroke-width="3"/></g><defs><linearGradient id="paint0_linear_131_261" x1="0" y1="0" x2="0" y2="811" gradientUnits="userSpaceOnUse"><stop stop-color="#FF59F8"/><stop offset=".198" stop-color="#AE72FF"/><stop offset=".406" stop-color="#90E9ED"/><stop offset=".62" stop-color="#5CD167"/><stop offset=".825" stop-color="#FE0"/></linearGradient><filter id="filter0_b_131_261" x="-40" y="-40" width="1414" height="891" filterUnits="userSpaceOnUse" color-interpolation-filters="sRGB"><feFlood flood-opacity="0" result="BackgroundImageFix"/><feGaussianBlur in="BackgroundImageFix" stdDeviation="20"/><feComposite in2="SourceAlpha" operator="in" result="effect1_backgroundBlur_131_261"/><feBlend in="SourceGraphic" in2="effect1_backgroundBlur_131_261" result="shape"/></filter></defs></svg>