<svg width="144" height="144" fill="none" xmlns="http://www.w3.org/2000/svg"><g clip-path="url(#clip0_153_180)"><path d="M117.478 24.69l-12.7-15.073a5.283 5.283 0 00-1.389-1.172l.002-.004L90.071.664c-1.76-1.022-4.026-.87-6.401.5L34.232 29.707c-5.392 3.114-9.763 11.465-9.763 18.655v79.305c0 4.035 1.377 6.845 3.538 7.986l12.98 7.583.007.005.173.101c1.712.988 3.943.896 6.384-.513l62.138-35.876c5.392-3.112 9.763-11.465 9.763-18.654V31.4c0-2.834-.693-5.189-1.974-6.71z" fill="#551981"/><path d="M112.501 107.775l-63.002 35.08c-5.467 3.043-9.899-.188-9.899-7.218V58.092c0-7.03 4.432-15.196 9.9-18.24l50.124-27.91c3.103-1.728 6.026-1.485 7.898.656l12.876 14.738c1.299 1.487 2.002 3.79 2.002 6.56v55.639c0 7.029-4.432 15.196-9.899 18.24z" fill="#7421B0"/><path d="M55.8 37.197v33.265c0 4.455 4.822 7.24 8.68 5.012l28.476-16.44a10.546 10.546 0 005.272-9.134V12.6L55.8 37.197z" fill="#E7DBFF"/><path d="M98.1 12.6L80.907 2.76 38.39 27.307l17.28 9.89L76.887 24.9 98.1 12.6z" fill="#C0A9F0"/><path d="M59.203 40.19v23.923l14.427-8.33V31.86l-14.427 8.33z" fill="#7421B0"/><path d="M56.78 89.99l43.92-25.357c2.174-1.255 4.891.314 4.891 2.825v25.267a10.03 10.03 0 01-5.014 8.685l-43.92 25.357c-2.175 1.255-4.892-.314-4.892-2.823V98.675a10.03 10.03 0 015.014-8.685z" fill="#E7DBFF"/><path d="M97.188 80.792L60.051 102.36c-1.328.766-2.405-.048-2.405-1.819 0-1.772 1.077-3.828 2.405-4.595l37.137-21.568c1.329-.766 2.406.048 2.406 1.819 0 1.77-1.077 3.828-2.406 4.595zm0 14.28l-37.137 21.567c-1.328.767-2.405-.047-2.405-1.818 0-1.771 1.077-3.829 2.405-4.596l37.137-21.567c1.329-.767 2.406.047 2.406 1.818 0 1.771-1.077 3.829-2.406 4.596z" fill="#7421B0"/></g><defs><clipPath id="clip0_153_180"><path fill="#fff" d="M0 0h144v144H0z"/></clipPath></defs></svg>