<svg width="250" height="39" fill="none" xmlns="http://www.w3.org/2000/svg"><path d="M58.965 15.892a6.28 6.28 0 01-.583 2.798 5.3 5.3 0 01-1.633 1.964 7.21 7.21 0 01-2.507 1.146 12.613 12.613 0 01-3.165.376 23.397 23.397 0 01-2.94-.18 16.903 16.903 0 01-2.814-.602v-3.647a22.744 22.744 0 002.904.82c.499.107.993.188 1.484.261.475.058.954.088 1.433.089a7.42 7.42 0 001.76-.18c.42-.094.82-.263 1.182-.498.283-.186.512-.445.665-.75.14-.301.211-.63.208-.964a1.835 1.835 0 00-.407-1.211 3.822 3.822 0 00-1.072-.865 9.624 9.624 0 00-1.515-.678 51.67 51.67 0 01-1.73-.648 18.673 18.673 0 01-1.73-.782 6.308 6.308 0 01-1.514-1.084 4.978 4.978 0 01-1.07-1.542 5.194 5.194 0 01-.378-2.18 5.924 5.924 0 01.412-2.197 4.687 4.687 0 011.302-1.823 6.552 6.552 0 012.275-1.235 10.798 10.798 0 013.344-.456c.386 0 .785.018 1.205.052.42.034.834.08 1.24.135a20.766 20.766 0 012.227.43v3.387a9.803 9.803 0 00-1.024-.33c-.373-.103-.76-.19-1.159-.261-.399-.072-.8-.129-1.205-.172-.404-.04-.788-.06-1.151-.06a7.06 7.06 0 00-1.627.159 3.453 3.453 0 00-1.093.435 1.659 1.659 0 00-.622.685 2.09 2.09 0 00-.192.901c-.006.395.14.777.407 1.063.313.326.678.596 1.08.797.492.255 1 .476 1.52.662.568.205 1.15.426 1.745.662a17.98 17.98 0 011.745.805 6.826 6.826 0 011.522 1.1c.447.438.808.959 1.064 1.534a4.93 4.93 0 01.407 2.084zm14.861 5.351c-.71.292-1.447.51-2.2.649a13.28 13.28 0 01-2.38.21 9.685 9.685 0 01-3.209-.497 6.375 6.375 0 01-2.407-1.474 6.402 6.402 0 01-1.515-2.423 9.748 9.748 0 01-.525-3.34 9.269 9.269 0 01.568-3.327 7.095 7.095 0 011.6-2.539 6.939 6.939 0 012.494-1.63 8.811 8.811 0 013.244-.57c.824-.01 1.646.042 2.462.156.605.094 1.203.228 1.79.399v3.564a8.98 8.98 0 00-1.987-.722 8.804 8.804 0 00-2.032-.26 4.453 4.453 0 00-1.79.346 3.774 3.774 0 00-1.347.961 4.188 4.188 0 00-.836 1.498 6.193 6.193 0 00-.29 1.934c-.012.67.091 1.34.305 1.974.19.551.49 1.056.88 1.483.383.409.85.727 1.367.932a4.67 4.67 0 001.773.323c.333 0 .667-.023.998-.067.353-.045.703-.11 1.049-.196.35-.086.696-.182 1.036-.291.34-.11.657-.232.952-.363v3.27zm13.25-8.756a6.996 6.996 0 00-.081-1.461 2.82 2.82 0 00-.356-.993 1.5 1.5 0 00-.599-.57 1.734 1.734 0 00-.81-.183 2.693 2.693 0 00-1.648.67 9.628 9.628 0 00-1.87 2.206v9.676h-3.695V6.542h3.267l.133 2.227a6.01 6.01 0 01.834-1.042 5.13 5.13 0 011.023-.805 4.87 4.87 0 011.264-.52 6.063 6.063 0 011.523-.18 4.836 4.836 0 012.016.398c.582.262 1.09.669 1.479 1.183a5.26 5.26 0 01.888 1.962c.205.895.291 1.814.255 2.732l-3.623-.01zm19.146.539c0 .25-.007.576-.023.977-.015.401-.035.781-.066 1.128h-9.871c-.012.606.09 1.21.302 1.777.188.488.48.928.857 1.287a3.7 3.7 0 001.33.781 5.22 5.22 0 001.722.26 17.273 17.273 0 002.344-.171 18.574 18.574 0 002.597-.568v2.928c-.384.11-.803.21-1.256.3-.454.09-.917.17-1.39.24-.47.07-.949.125-1.432.158a20.07 20.07 0 01-1.405.052 8.92 8.92 0 01-3.07-.495 6.083 6.083 0 01-2.303-1.466 6.445 6.445 0 01-1.448-2.402 9.946 9.946 0 01-.512-3.309 10.81 10.81 0 01.512-3.387 7.857 7.857 0 011.417-2.605 6.249 6.249 0 012.226-1.685 6.968 6.968 0 012.917-.594 7.386 7.386 0 012.814.505 5.65 5.65 0 012.047 1.407 5.991 5.991 0 011.257 2.152c.295.878.442 1.801.434 2.73zm-3.666-.521a4.526 4.526 0 00-.22-1.563 3.16 3.16 0 00-.642-1.105 2.557 2.557 0 00-.947-.649 3.16 3.16 0 00-1.159-.21 2.911 2.911 0 00-1.214.22c-.385.16-.732.401-1.02.707-.58.615-.92 1.483-1.023 2.605l6.225-.005zm19.399.521c0 .25-.007.576-.023.977a23.4 23.4 0 01-.066 1.128h-9.871c-.012.607.09 1.21.302 1.777.187.489.48.929.857 1.287a3.7 3.7 0 001.33.782c.556.182 1.138.27 1.722.26a17.213 17.213 0 002.341-.172 18.547 18.547 0 002.595-.568v2.928c-.384.11-.803.21-1.257.3-.453.09-.916.17-1.389.24-.473.07-.949.125-1.433.159-.483.034-.952.052-1.404.052a8.914 8.914 0 01-3.071-.495 6.063 6.063 0 01-2.302-1.467 6.45 6.45 0 01-1.449-2.402 9.934 9.934 0 01-.511-3.309 10.8 10.8 0 01.511-3.386 7.81 7.81 0 011.418-2.606 6.266 6.266 0 012.223-1.685 6.989 6.989 0 012.914-.615 7.39 7.39 0 012.815.505 5.65 5.65 0 012.047 1.407 5.993 5.993 0 011.279 2.152c.293.886.436 1.816.422 2.751zm-3.666-.52a4.55 4.55 0 00-.22-1.564 3.143 3.143 0 00-.645-1.104 2.527 2.527 0 00-.944-.65 3.165 3.165 0 00-1.162-.21 2.91 2.91 0 00-2.228.899c-.58.614-.921 1.483-1.024 2.605l6.223.023zm15.269 9.326V11.87c0-1.675-.61-2.512-1.832-2.514a2.596 2.596 0 00-1.75.753 12.912 12.912 0 00-1.768 2.047v9.676h-3.605V6.542h3.119l.087 2.259c.295-.378.613-.736.955-1.07a5.496 5.496 0 011.072-.819 5.08 5.08 0 011.241-.521 5.698 5.698 0 011.491-.18 4.898 4.898 0 012.014.383 3.913 3.913 0 011.433 1.084c.401.495.697 1.069.87 1.686.2.716.297 1.459.289 2.204v10.264h-3.616zm19.167-4.499a4.183 4.183 0 01-.568 2.233 4.569 4.569 0 01-1.507 1.505 6.833 6.833 0 01-2.129.842c-.799.176-1.613.263-2.431.26a25.728 25.728 0 01-2.985-.156 19.297 19.297 0 01-2.513-.461V18.25a13.916 13.916 0 005.378 1.11c.947 0 1.653-.151 2.121-.459.21-.116.386-.287.51-.496a1.377 1.377 0 00.045-1.323 1.545 1.545 0 00-.555-.546 6.072 6.072 0 00-1.143-.542 25.854 25.854 0 00-1.937-.626 12.274 12.274 0 01-1.945-.716 5.02 5.02 0 01-1.381-.938 3.526 3.526 0 01-.819-1.258 4.673 4.673 0 01-.274-1.678 3.881 3.881 0 01.415-1.761 4.14 4.14 0 011.233-1.462 6.229 6.229 0 012.047-.984c.934-.257 1.9-.38 2.868-.362a18.44 18.44 0 012.512.15c.727.1 1.374.212 1.935.332v2.996a15.36 15.36 0 00-2.416-.594 14.869 14.869 0 00-2.238-.172 3.413 3.413 0 00-1.791.406 1.234 1.234 0 00-.495.466 1.26 1.26 0 00-.178.662 1.37 1.37 0 00.133.617c.124.216.3.395.511.522.348.208.713.383 1.093.52.467.186 1.086.39 1.855.61a13.99 13.99 0 012.211.823c.529.24 1.015.567 1.437.97.346.346.609.768.768 1.235a4.92 4.92 0 01.233 1.58zm12.304 4.499V11.87c0-1.675-.611-2.513-1.832-2.514a2.605 2.605 0 00-1.75.753 13.022 13.022 0 00-1.765 2.047v9.676h-3.608V.568h3.605v5.237l-.176 2.77c.284-.355.592-.69.921-1.001a4.875 4.875 0 012.205-1.204 5.76 5.76 0 011.405-.159 4.886 4.886 0 012.019.383 3.897 3.897 0 011.435 1.084c.4.495.695 1.069.867 1.686.2.716.296 1.459.287 2.204v10.264h-3.613zm20.3-7.764a10.313 10.313 0 01-.512 3.304 7.318 7.318 0 01-1.448 2.566 6.402 6.402 0 01-2.318 1.654 7.935 7.935 0 01-3.134.586 8.418 8.418 0 01-2.986-.495 5.793 5.793 0 01-2.226-1.485 6.579 6.579 0 01-1.405-2.467 11.097 11.097 0 01-.486-3.454 10.19 10.19 0 01.512-3.311 7.216 7.216 0 011.463-2.543 6.529 6.529 0 012.326-1.634 7.952 7.952 0 013.106-.578 8.346 8.346 0 012.999.505 5.823 5.823 0 012.231 1.496 6.58 6.58 0 011.397 2.47c.337 1.095.5 2.239.481 3.386zm-3.753.092c0-1.588-.294-2.78-.881-3.575-.586-.795-1.451-1.197-2.594-1.206a3.225 3.225 0 00-1.609.375c-.443.252-.819.61-1.095 1.042a4.606 4.606 0 00-.627 1.527 8.297 8.297 0 00-.2 1.865c0 1.596.315 2.798.944 3.606a3.14 3.14 0 001.15.922c.45.211.942.31 1.437.29a3.2 3.2 0 001.568-.37c.439-.243.81-.595 1.078-1.024.292-.475.502-.996.621-1.543a8.366 8.366 0 00.208-1.912v.003zm18.347 7.52a21 21 0 01-1.965.36 13.74 13.74 0 01-1.878.135 9.054 9.054 0 01-2.558-.315 4.398 4.398 0 01-1.773-.964 3.838 3.838 0 01-1.037-1.646 7.648 7.648 0 01-.332-2.387V9.402h-4.022V6.536h4.032V2.628l3.695-.977v4.89h5.838v2.866h-5.838v7.19c0 .869.197 1.529.591 1.98.394.452 1.054.675 1.98.67.58.001 1.158-.05 1.73-.151a15.099 15.099 0 001.535-.347l.002 2.931zm16.426-8.654c0 .25-.007.576-.023.977 0 .401-.035.781-.066 1.128h-9.871c-.011.607.092 1.21.304 1.777.186.49.479.93.857 1.287a3.67 3.67 0 001.328.781 5.195 5.195 0 001.722.26 17.273 17.273 0 002.344-.171 18.578 18.578 0 002.592-.568v2.928c-.384.11-.801.209-1.256.3a25.69 25.69 0 01-1.387.24 19.76 19.76 0 01-2.838.21 8.925 8.925 0 01-3.07-.495 6.088 6.088 0 01-2.303-1.466 6.483 6.483 0 01-1.448-2.402 9.961 9.961 0 01-.512-3.309 10.83 10.83 0 01.512-3.387 7.812 7.812 0 011.42-2.605 6.22 6.22 0 012.223-1.685 6.982 6.982 0 012.92-.594 7.383 7.383 0 012.814.505c.776.31 1.474.79 2.047 1.407.562.62.99 1.353 1.256 2.152.295.879.442 1.802.435 2.73zm-3.663-.521a4.479 4.479 0 00-.223-1.563 3.12 3.12 0 00-.642-1.105 2.537 2.537 0 00-.947-.649 3.15 3.15 0 00-1.159-.21 2.909 2.909 0 00-1.213.22c-.384.16-.731.401-1.018.707-.583.615-.926 1.485-1.024 2.605l6.226-.005zm15.983-.018a6.81 6.81 0 00-.082-1.461 2.81 2.81 0 00-.361-.993 1.51 1.51 0 00-.596-.57 1.762 1.762 0 00-.813-.183 2.692 2.692 0 00-1.648.67 9.622 9.622 0 00-1.87 2.206v9.676h-3.69V6.542h3.267l.133 2.227c.239-.377.519-.727.834-1.042a5.158 5.158 0 011.024-.805 4.908 4.908 0 011.264-.52 6.059 6.059 0 011.522-.18 4.85 4.85 0 012.019.398 3.806 3.806 0 011.476 1.183 5.22 5.22 0 01.888 1.962c.205.895.291 1.814.256 2.732l-3.623-.01zm15.82 2.663v5.853h-3.326v-5.854h-5.517v-3.025h5.511V6.302h3.327v5.822H250v3.025h-5.511z" fill="#7421B0"/><path d="M49.841 35.804c.003.054.003.11 0 .164a.552.552 0 01-.056.216.581.581 0 01-.082.1 1.522 1.522 0 01-.24.176 2.89 2.89 0 01-.456.235 3.568 3.568 0 01-1.394.27 3.323 3.323 0 01-1.305-.244 2.637 2.637 0 01-.993-.724 3.259 3.259 0 01-.632-1.186 5.372 5.372 0 01-.222-1.62 5.442 5.442 0 01.238-1.678c.14-.458.368-.883.67-1.25a2.845 2.845 0 011.023-.782c.42-.18.873-.27 1.328-.26.21-.001.42.02.627.062.19.039.379.09.563.154a2.6 2.6 0 01.458.218c.1.056.194.123.279.201.037.036.07.076.1.12a.42.42 0 01.038.096c.012.044.02.088.023.133.003.06.003.12 0 .18.005.066.005.132 0 .198a.565.565 0 01-.036.138.232.232 0 01-.053.083.131.131 0 01-.08.026.436.436 0 01-.225-.114 3.044 3.044 0 00-.926-.521 2.391 2.391 0 00-.783-.115 1.995 1.995 0 00-.903.203c-.275.137-.513.34-.694.592a2.907 2.907 0 00-.447.956 4.721 4.721 0 00-.159 1.302c-.006.43.045.857.15 1.272.086.335.235.65.441.925.184.243.425.435.701.56.297.131.618.196.942.19.26.004.518-.033.767-.11.197-.067.386-.154.566-.26.156-.091.284-.175.383-.248a.45.45 0 01.238-.112.108.108 0 01.074.022.112.112 0 01.041.064c.015.044.024.09.026.136.005.068.01.14.01.232zm5.061.963a.108.108 0 01-.02.063.154.154 0 01-.074.041.593.593 0 01-.144.026 1.84 1.84 0 01-.227 0 2.186 2.186 0 01-.256 0 .92.92 0 01-.164-.03.223.223 0 01-.092-.053.206.206 0 01-.041-.073l-.55-1.362a3.077 3.077 0 00-.22-.454 1.016 1.016 0 00-.624-.477 1.78 1.78 0 00-.448-.052h-.402v2.369a.087.087 0 01-.028.057.187.187 0 01-.087.047.799.799 0 01-.148.028 1.514 1.514 0 01-.213 0 1.5 1.5 0 01-.212 0 .826.826 0 01-.151-.028.148.148 0 01-.082-.047.085.085 0 01-.026-.057v-5.346a.08.08 0 01.026-.058.217.217 0 01.082-.044c.05-.012.1-.02.15-.026h.425c.05.005.1.014.149.026a.3.3 0 01.087.044.08.08 0 01.028.058v2.204h.402c.134 0 .268-.016.399-.05a.985.985 0 00.33-.164c.102-.083.189-.183.256-.297a2.32 2.32 0 00.217-.438l.481-1.208a.194.194 0 01.125-.14.623.623 0 01.154-.035h.484a.877.877 0 01.138.026.154.154 0 01.066.044.117.117 0 01.018.058.435.435 0 01-.015.11 1.168 1.168 0 01-.044.135l-.496 1.161a2.56 2.56 0 01-.256.493 2.05 2.05 0 01-.273.328 1.229 1.229 0 01-.282.206 1.722 1.722 0 01-.276.115c.128.044.253.1.37.169a1.805 1.805 0 01.589.594c.092.148.17.304.236.466l.568 1.332a.366.366 0 01.051.143v.052c0 .013.02.034.02.044zm5.642-2.754c.005.418-.044.835-.146 1.24-.083.336-.23.653-.43.933-.185.25-.426.452-.703.589-.3.142-.629.214-.96.208a1.62 1.62 0 01-.806-.193 2.13 2.13 0 01-.37-.26 5.022 5.022 0 01-.392-.355v2.642a.147.147 0 01-.023.08.174.174 0 01-.075.058.519.519 0 01-.143.037 1.967 1.967 0 01-.235 0 1.88 1.88 0 01-.23 0 .541.541 0 01-.146-.037.146.146 0 01-.075-.057.145.145 0 01-.02-.08v-7.353a.163.163 0 01.018-.086.13.13 0 01.069-.054.474.474 0 01.13-.034h.395a.478.478 0 01.127.034.15.15 0 01.072.054.142.142 0 01.02.086v.706c.144-.15.295-.293.453-.427a2.75 2.75 0 01.44-.3 1.894 1.894 0 01.944-.242c.334-.01.664.066.96.222.262.145.484.353.648.607a2.8 2.8 0 01.363.898c.078.356.117.72.115 1.084zm-.983.112c0-.261-.02-.523-.058-.781a2.276 2.276 0 00-.21-.67 1.225 1.225 0 00-.394-.466 1.05 1.05 0 00-.62-.177c-.123 0-.245.019-.363.057-.129.04-.252.1-.366.175a2.732 2.732 0 00-.386.315 5.245 5.245 0 00-.427.482v2.084c.216.279.466.528.744.742.213.165.472.257.74.26.218.008.433-.053.616-.174.174-.12.316-.28.415-.469.11-.204.19-.425.235-.654.048-.237.073-.479.074-.721v-.003zm6.653 2.608a.137.137 0 01-.097.13.635.635 0 01-.144.032 1.843 1.843 0 01-.23 0 1.765 1.765 0 01-.228 0 .757.757 0 01-.15-.032.147.147 0 01-.08-.054.137.137 0 01-.023-.076v-3.494c0-.156.018-.312.03-.466-.089.156-.186.31-.291.459l-.317.448-2.185 3.053-.072.08a.197.197 0 01-.08.055.39.39 0 01-.122.03 1.258 1.258 0 01-.184 0 1.462 1.462 0 01-.207 0 .604.604 0 01-.131-.032.137.137 0 01-.087-.13v-5.278a.134.134 0 01.095-.133.55.55 0 01.145-.034h.226c.127-.007.255.008.378.044a.138.138 0 01.072.048.143.143 0 01.03.082v3.499c0 .149-.017.3-.03.448.09-.148.18-.292.256-.435.077-.143.187-.281.289-.417l2.223-3.095a.533.533 0 01.07-.08.272.272 0 01.092-.055.563.563 0 01.13-.031h.399c.046.004.09.016.133.033a.15.15 0 01.067.058.15.15 0 01.02.083l.003 5.26zm5.938 0a.142.142 0 01-.023.081.192.192 0 01-.074.055.535.535 0 01-.143.034 1.842 1.842 0 01-.23 0 1.849 1.849 0 01-.236 0 .506.506 0 01-.143-.034.16.16 0 01-.074-.055.124.124 0 01-.023-.08v-2.309H68.57v2.308a.163.163 0 01-.02.081.204.204 0 01-.077.055.506.506 0 01-.143.034 1.887 1.887 0 01-.236 0 1.842 1.842 0 01-.23 0 .555.555 0 01-.146-.034.129.129 0 01-.071-.05.132.132 0 01-.023-.086v-5.267a.15.15 0 01.02-.081.182.182 0 01.074-.058.46.46 0 01.146-.036h.466c.05.004.098.016.143.037.03.013.055.033.077.057a.156.156 0 01.02.08v2.142h2.638v-2.139a.121.121 0 01.023-.08.182.182 0 01.074-.058.424.424 0 01.144-.036h.465a.44.44 0 01.144.036.225.225 0 01.074.057.138.138 0 01.023.081l-.003 5.265zm8.211-.2a.361.361 0 01-.08.26.28.28 0 01-.212.084h-6.225a.27.27 0 01-.215-.084.37.37 0 01-.077-.26v-5.067a.135.135 0 01.02-.081.175.175 0 01.078-.058.501.501 0 01.148-.036h.46a.44.44 0 01.144.037.224.224 0 01.074.057.137.137 0 01.023.08v4.578h2v-4.577a.135.135 0 01.021-.081.172.172 0 01.072-.058.408.408 0 01.138-.036h.453a.44.44 0 01.143.037.225.225 0 01.075.057.138.138 0 01.022.08v4.578h1.999v-4.577a.16.16 0 01.02-.081.183.183 0 01.074-.058.458.458 0 01.144-.036h.463c.05.004.1.016.146.037.03.012.055.032.076.057a.137.137 0 01.023.08l-.007 5.068zm6.212-2.495c.004.4-.052.799-.166 1.182-.105.344-.28.662-.512.933a2.216 2.216 0 01-.826.612 2.826 2.826 0 01-1.152.219 2.945 2.945 0 01-1.11-.193 2.048 2.048 0 01-.79-.56 2.441 2.441 0 01-.472-.896 4.238 4.238 0 01-.153-1.193c-.004-.4.05-.8.164-1.183.098-.343.267-.66.493-.933.232-.268.522-.476.847-.607a2.824 2.824 0 011.154-.216c.38-.01.756.056 1.11.193.304.12.576.311.791.56.218.26.38.565.474.893.106.387.156.787.148 1.189zm-.983.065a3.869 3.869 0 00-.079-.808 2.024 2.024 0 00-.256-.667 1.313 1.313 0 00-.488-.453 1.82 1.82 0 00-1.492 0 1.34 1.34 0 00-.512.43 1.964 1.964 0 00-.291.656 3.394 3.394 0 00-.095.831 4.11 4.11 0 00.077.813c.045.235.131.459.256.662.121.19.29.346.488.45.239.12.502.177.768.167.25.007.497-.045.724-.151.203-.097.379-.244.512-.427a1.87 1.87 0 00.291-.654 3.57 3.57 0 00.097-.85zm5.555-2.35c.005.066.005.132 0 .198a.406.406 0 01-.038.133.223.223 0 01-.059.08.152.152 0 01-.087.026h-1.55v4.544a.142.142 0 01-.023.08.192.192 0 01-.075.055.532.532 0 01-.143.034 1.926 1.926 0 01-.235 0 1.843 1.843 0 01-.23 0 .551.551 0 01-.146-.034.158.158 0 01-.075-.054.14.14 0 01-.02-.081V32.19h-1.55a.16.16 0 01-.085-.026.176.176 0 01-.059-.08.617.617 0 01-.038-.136 1.192 1.192 0 01-.013-.203 1.043 1.043 0 01.013-.188.529.529 0 01.04-.135.216.216 0 01.06-.083.146.146 0 01.081-.026h4.048c.03 0 .06.01.084.026.027.021.047.05.06.083.017.045.03.092.038.14.006.064.007.127.002.19zm7.489 4.98a.137.137 0 01-.023.076.15.15 0 01-.074.054.67.67 0 01-.143.032 2.038 2.038 0 01-.46 0 .767.767 0 01-.15-.032.135.135 0 01-.079-.054.119.119 0 01-.023-.076v-3.494c0-.156.018-.312.029-.466a5.077 5.077 0 01-.29.459c-.104.15-.212.3-.32.448l-2.18 3.053-.07.08a.217.217 0 01-.08.056.39.39 0 01-.126.028c-.06.005-.12.005-.181 0a1.462 1.462 0 01-.207 0 .598.598 0 01-.131-.031.128.128 0 01-.07-.055.158.158 0 01-.02-.075v-5.278c0-.027.008-.053.02-.076a.146.146 0 01.075-.057.602.602 0 01.148-.034h.223a1.11 1.11 0 01.379.044.144.144 0 01.105.13v3.048c0 .151 0 .303-.013.451-.013.149-.015.3-.028.448.087-.148.176-.291.256-.435.079-.143.186-.281.291-.417l2.221-3.095a.733.733 0 01.072-.08.273.273 0 01.092-.055.534.534 0 01.13-.031h.4a.451.451 0 01.13.034.144.144 0 01.07.057c.013.025.02.054.02.083l.007 5.26zm7.29-1.464a1.51 1.51 0 01-.599 1.256 2.025 2.025 0 01-.709.341 3.556 3.556 0 01-.954.117 3.59 3.59 0 01-1.036-.154 2.03 2.03 0 01-.361-.148 1.1 1.1 0 01-.207-.13.425.425 0 01-.09-.097.261.261 0 01-.041-.096c0-.036-.013-.078-.02-.128-.008-.05 0-.112 0-.182a.939.939 0 01.012-.159.343.343 0 01.067-.167.1.1 0 01.064-.018c.065.01.126.037.177.078.095.066.195.124.299.175.15.074.307.134.468.18.225.059.456.086.688.08.173.001.344-.019.512-.06.14-.035.272-.097.389-.182a.844.844 0 00.256-.302.946.946 0 00.087-.42.79.79 0 00-.085-.37.747.747 0 00-.271-.276 1.56 1.56 0 00-.471-.18 3.3 3.3 0 00-.693-.062h-.576a.188.188 0 01-.092-.02.187.187 0 01-.059-.066.267.267 0 01-.033-.117 1.233 1.233 0 010-.172 1.497 1.497 0 010-.164.416.416 0 01.036-.11.147.147 0 01.056-.062.18.18 0 01.087-.021h.54c.209.003.417-.016.622-.057.155-.031.303-.09.437-.175a.712.712 0 00.256-.279.843.843 0 00.082-.383.686.686 0 00-.294-.583 1.022 1.022 0 00-.33-.146 1.811 1.811 0 00-.42-.05 2.184 2.184 0 00-.609.084 3.01 3.01 0 00-.468.177 3.858 3.858 0 00-.325.175.423.423 0 01-.179.08.1.1 0 01-.054-.015.119.119 0 01-.046-.053.269.269 0 01-.028-.104 1.088 1.088 0 010-.161 1.2 1.2 0 01.026-.26.367.367 0 01.094-.17 1.1 1.1 0 01.243-.164c.129-.07.264-.126.405-.167.167-.053.338-.094.511-.122a3.06 3.06 0 01.561-.05c.258-.003.516.027.767.089.215.052.418.146.599.276.164.117.298.274.389.456.095.196.143.413.138.633.007.283-.083.56-.256.781a1.459 1.459 0 01-.737.49c.155.017.305.062.443.133a1.391 1.391 0 01.67.69c.055.164.076.338.062.511zm4.933 1.465a.127.127 0 01-.046.104.303.303 0 01-.126.052 1.08 1.08 0 01-.235.018 1.16 1.16 0 01-.238-.018.285.285 0 01-.131-.052.147.147 0 01-.03-.048.153.153 0 01-.008-.056v-.522a2.575 2.575 0 01-.768.571 1.96 1.96 0 01-.882.206c-.251.002-.5-.034-.74-.107a1.579 1.579 0 01-.56-.315 1.38 1.38 0 01-.363-.5 1.72 1.72 0 01-.128-.68 1.594 1.594 0 01.176-.782 1.52 1.52 0 01.512-.544 2.47 2.47 0 01.816-.323 4.915 4.915 0 011.085-.11h.711v-.409a1.981 1.981 0 00-.064-.537.932.932 0 00-.202-.39.878.878 0 00-.366-.232 1.605 1.605 0 00-.55-.081 2.136 2.136 0 00-.629.086 3.027 3.027 0 00-.489.188 5.72 5.72 0 00-.35.185.466.466 0 01-.208.085.145.145 0 01-.082-.023.177.177 0 01-.058-.07.36.36 0 01-.039-.12 1.091 1.091 0 01.008-.39.315.315 0 01.1-.162c.078-.07.164-.13.256-.177a2.41 2.41 0 01.437-.188c.183-.058.371-.102.56-.13a3.24 3.24 0 01.591-.055c.321-.008.642.035.95.128.237.072.454.201.632.377.164.173.285.384.35.615.076.28.112.57.108.86v3.546zm-.942-2.405h-.808a3.03 3.03 0 00-.678.068 1.38 1.38 0 00-.476.198.807.807 0 00-.279.315.986.986 0 00-.09.425.855.855 0 00.256.65.998.998 0 00.714.246c.244 0 .484-.066.693-.193.25-.162.475-.362.668-.591v-1.118zm6.693 2.404a.136.136 0 01-.023.081.19.19 0 01-.074.055.527.527 0 01-.143.034 1.801 1.801 0 01-.23 0 1.896 1.896 0 01-.236 0 .552.552 0 01-.146-.034.183.183 0 01-.079-.055.148.148 0 01-.031-.08V32.13h-2.461v4.603a.136.136 0 01-.023.081.2.2 0 01-.079.055.552.552 0 01-.146.034 1.817 1.817 0 01-.231 0 1.755 1.755 0 01-.227 0 .603.603 0 01-.149-.034.129.129 0 01-.094-.136V31.66a.365.365 0 01.079-.261.28.28 0 01.215-.086h3.784a.267.267 0 01.212.086.386.386 0 01.075.26l.007 5.075zm6.005 0a.156.156 0 01-.023.076.156.156 0 01-.076.054.644.644 0 01-.144.032 2.004 2.004 0 01-.458 0 .819.819 0 01-.151-.032.15.15 0 01-.079-.054.135.135 0 01-.023-.076v-3.494c0-.156.018-.312.031-.466-.09.156-.187.31-.292.459-.105.148-.21.3-.317.448l-2.185 3.053-.072.08a.202.202 0 01-.079.055.39.39 0 01-.123.03 1.256 1.256 0 01-.184 0 1.473 1.473 0 01-.208 0 .536.536 0 01-.127-.032.13.13 0 01-.07-.055.134.134 0 01-.02-.075v-5.278a.134.134 0 01.02-.076.145.145 0 01.075-.057.552.552 0 01.146-.034h.225c.127-.007.255.008.378.044a.14.14 0 01.103.13v3.499c0 .149-.018.3-.031.448.09-.148.179-.292.256-.435.077-.143.187-.281.289-.417l2.223-3.095a.633.633 0 01.072-.08.231.231 0 01.092-.055.537.537 0 01.128-.031h.399a.468.468 0 01.133.033.165.165 0 01.069.058.174.174 0 01.021.083l.002 5.26zm5.118-.808v.172a.508.508 0 01-.021.123.682.682 0 01-.033.089.606.606 0 01-.092.111c-.08.069-.165.129-.256.18a2.44 2.44 0 01-.386.193 2.944 2.944 0 01-.469.138c-.168.034-.34.052-.511.052a2.449 2.449 0 01-.988-.187 1.895 1.895 0 01-.722-.547 2.535 2.535 0 01-.442-.884 4.383 4.383 0 01-.151-1.206 4.207 4.207 0 01.174-1.334c.104-.338.278-.65.512-.914.212-.232.475-.41.767-.521.304-.117.627-.175.952-.172.309 0 .616.058.906.17.121.045.238.104.348.174.078.05.151.106.22.17.036.032.067.07.094.111a.483.483 0 01.067.221c.003.059.003.117 0 .175a.689.689 0 01-.051.32.153.153 0 01-.05.064.153.153 0 01-.076.028.34.34 0 01-.199-.097 2.993 2.993 0 00-.284-.213 2.067 2.067 0 00-.415-.214 1.557 1.557 0 00-.578-.096 1.18 1.18 0 00-.591.121 1.203 1.203 0 00-.458.4 2.752 2.752 0 00-.363 1.563c-.005.3.027.599.094.89.053.23.147.448.279.642.115.166.27.297.451.383.192.086.401.13.611.125a1.46 1.46 0 00.573-.104 2.37 2.37 0 00.43-.232c.12-.084.22-.16.304-.227a.35.35 0 01.192-.104.11.11 0 01.069.023.2.2 0 01.049.081.59.59 0 01.028.138c.01.052.016.117.016.196zm5.193-.872a1.93 1.93 0 01-.145.755 1.568 1.568 0 01-.456.608 2.273 2.273 0 01-.793.406 3.948 3.948 0 01-1.154.151h-.65l-.314-.02-.305-.03a.47.47 0 01-.457-.344.49.49 0 01-.014-.205v-4.908a.16.16 0 01.021-.081.18.18 0 01.074-.058.46.46 0 01.146-.036h.46a.43.43 0 01.146.037c.03.012.056.032.077.057a.136.136 0 01.023.08v1.853c.143 0 .294-.021.46-.026.167-.005.333 0 .512 0 .363-.006.725.037 1.077.127.267.068.518.19.737.36.186.146.332.338.425.557.091.228.135.472.13.717zm-.997.065a1.24 1.24 0 00-.075-.435.78.78 0 00-.255-.334 1.232 1.232 0 00-.448-.21 2.763 2.763 0 00-.678-.073c-.161 0-.317 0-.474.013-.156.013-.294.015-.422.028v2.022a7.477 7.477 0 00.942.06c.373.03.746-.07 1.057-.284a.963.963 0 00.353-.787zm7.998-1.151c.006.432-.048.864-.161 1.281a2.628 2.628 0 01-.471.946c-.205.257-.468.46-.768.589-.34.139-.703.207-1.069.2a3.153 3.153 0 01-1.06-.174 1.83 1.83 0 01-.562-.32.639.639 0 01-.087-.09.285.285 0 01-.039-.088.587.587 0 01-.02-.125v-.185a.723.723 0 01.041-.302.129.129 0 01.112-.078.29.29 0 01.169.094 2 2 0 00.292.203 2.176 2.176 0 001.149.294 1.357 1.357 0 001.082-.454c.298-.393.452-.88.437-1.377h-2.599a.14.14 0 01-.128-.084.618.618 0 01-.046-.278.607.607 0 01.046-.277.142.142 0 01.128-.085h2.584a2.755 2.755 0 00-.148-.696 1.563 1.563 0 00-.318-.521 1.355 1.355 0 00-.478-.339 1.578 1.578 0 00-.635-.12 1.649 1.649 0 00-.593.097 2.655 2.655 0 00-.737.42.313.313 0 01-.169.096.089.089 0 01-.059-.019.177.177 0 01-.046-.062.365.365 0 01-.031-.117 1.954 1.954 0 010-.188 1.547 1.547 0 010-.167c0-.044.013-.08.021-.112a.454.454 0 01.028-.08.397.397 0 01.064-.076c.059-.051.122-.098.187-.14.113-.074.232-.138.355-.191a3.18 3.18 0 01.512-.164c.206-.048.416-.07.627-.068.333-.004.663.058.972.182.293.119.555.303.768.54.222.251.39.546.494.867.114.378.167.772.156 1.168zm5.258 2.8a.108.108 0 01-.021.063.151.151 0 01-.074.041.6.6 0 01-.143.026 1.845 1.845 0 01-.228 0 2.277 2.277 0 01-.256 0 .998.998 0 01-.164-.03.224.224 0 01-.092-.053.217.217 0 01-.038-.073l-.553-1.362a3.038 3.038 0 00-.22-.454 1.015 1.015 0 00-.624-.477 1.782 1.782 0 00-.448-.052h-.402v2.369a.08.08 0 01-.028.057.183.183 0 01-.087.047.79.79 0 01-.148.028 1.666 1.666 0 01-.212 0 1.646 1.646 0 01-.213 0 .745.745 0 01-.148-.028.16.16 0 01-.085-.047.087.087 0 01-.025-.057v-5.346c0-.011.002-.022.007-.032a.07.07 0 01.018-.026.232.232 0 01.085-.044c.049-.012.098-.02.148-.026h.425c.05.005.099.014.148.026a.31.31 0 01.087.044.073.073 0 01.02.026.07.07 0 01.008.032v2.204h.402c.135 0 .269-.016.399-.05a.986.986 0 00.33-.164c.102-.083.188-.184.256-.297.086-.138.158-.285.215-.438l.481-1.208a.199.199 0 01.041-.084.208.208 0 01.087-.057.572.572 0 01.151-.034h.481a.764.764 0 01.138.026.154.154 0 01.067.044.116.116 0 01.018.058.45.45 0 01-.016.11 1.077 1.077 0 01-.043.135l-.491 1.161a2.641 2.641 0 01-.256.493 1.92 1.92 0 01-.274.328 1.25 1.25 0 01-.281.206 1.748 1.748 0 01-.277.115c.129.044.253.1.371.169.12.07.23.154.328.253.104.104.196.22.273.346a3 3 0 01.236.466l.568 1.332c.014.024.026.05.036.075 0 .024 0 .047.018.068.017.02 0 .04 0 .052a.497.497 0 01.005.04zm5.641-2.754c.005.418-.044.835-.145 1.24-.084.336-.23.653-.43.933-.186.25-.427.452-.704.589-.3.143-.628.214-.959.208a1.813 1.813 0 01-.425-.047 1.6 1.6 0 01-.381-.146 2.097 2.097 0 01-.371-.26 5.06 5.06 0 01-.392-.355v2.642a.153.153 0 01-.023.08.155.155 0 01-.074.058.507.507 0 01-.143.037 1.977 1.977 0 01-.236 0 1.878 1.878 0 01-.23 0 .545.545 0 01-.146-.037.147.147 0 01-.074-.057.174.174 0 01-.02-.08v-7.353a.17.17 0 01.017-.086.134.134 0 01.07-.054.462.462 0 01.13-.034h.394a.533.533 0 01.131.034c.027.01.051.03.069.054a.151.151 0 01.02.086v.706c.144-.15.297-.293.455-.427.136-.114.283-.215.438-.3a1.877 1.877 0 01.944-.242c.333-.01.664.066.96.222a1.8 1.8 0 01.647.607c.169.275.289.58.353.898.082.356.124.72.125 1.084zm-.982.112c0-.261-.02-.523-.059-.781a2.276 2.276 0 00-.21-.67 1.22 1.22 0 00-.394-.466 1.049 1.049 0 00-.619-.177c-.123 0-.246.019-.363.057-.129.04-.251.099-.364.175a2.649 2.649 0 00-.389.315 5.302 5.302 0 00-.427.482v2.084c.218.278.469.528.747.742.212.166.47.257.737.26.218.008.433-.053.617-.174.174-.12.317-.28.417-.469.109-.205.187-.425.233-.654a3.57 3.57 0 00.074-.721v-.003zm5.946 2.608a.128.128 0 01-.046.104.294.294 0 01-.125.052 1.1 1.1 0 01-.236.019 1.165 1.165 0 01-.238-.019.277.277 0 01-.13-.052.13.13 0 01-.03-.048.136.136 0 01-.009-.056v-.52a2.57 2.57 0 01-.767.57 1.964 1.964 0 01-.883.206 2.414 2.414 0 01-.737-.107 1.573 1.573 0 01-.563-.316 1.405 1.405 0 01-.363-.5 1.739 1.739 0 01-.128-.68c-.008-.271.053-.54.177-.781.123-.222.299-.41.511-.545.252-.156.528-.265.817-.323.356-.076.72-.113 1.084-.11h.712v-.408a2.109 2.109 0 00-.062-.537.946.946 0 00-.204-.39.884.884 0 00-.366-.233 1.61 1.61 0 00-.55-.08 2.144 2.144 0 00-.63.086c-.167.047-.33.11-.486.187a4.95 4.95 0 00-.35.185.487.487 0 01-.21.086.143.143 0 01-.082-.023.198.198 0 01-.059-.07.337.337 0 01-.038-.12 1.09 1.09 0 010-.162.928.928 0 01.02-.23.33.33 0 01.097-.16c.078-.07.164-.13.256-.178.14-.076.286-.14.438-.188a3.607 3.607 0 011.131-.195c.32-.007.639.036.946.128.238.072.455.201.632.378.165.172.286.383.351.614.076.28.112.57.107.86l.013 3.556zm-.941-2.404h-.809a3.03 3.03 0 00-.678.067 1.389 1.389 0 00-.476.198.807.807 0 00-.279.316.985.985 0 00-.089.424.856.856 0 00.255.651c.2.172.456.26.717.245a1.32 1.32 0 00.691-.192c.25-.163.475-.362.668-.592V34.33zm6.854 2.404a.136.136 0 01-.023.081.197.197 0 01-.074.055.532.532 0 01-.144.034 1.839 1.839 0 01-.23 0 1.88 1.88 0 01-.235 0 .498.498 0 01-.143-.034.174.174 0 01-.075-.055.152.152 0 01-.023-.08v-2.309h-2.635v2.308a.136.136 0 01-.023.081.197.197 0 01-.074.055.556.556 0 01-.146.034 1.843 1.843 0 01-.235 0 1.845 1.845 0 01-.228 0 .603.603 0 01-.149-.034.177.177 0 01-.074-.055.162.162 0 01-.02-.08v-5.268a.152.152 0 01.02-.081.207.207 0 01.074-.058.51.51 0 01.149-.036h.463c.05.004.099.016.146.037a.233.233 0 01.074.057.136.136 0 01.023.08v2.142h2.635v-2.139a.136.136 0 01.023-.08.202.202 0 01.075-.058.418.418 0 01.143-.036h.465c.05.004.098.016.144.036a.233.233 0 01.074.057.136.136 0 01.023.081v5.265zm5.304 0a.127.127 0 01-.046.104.307.307 0 01-.128.053c-.078.014-.157.02-.235.018a1.16 1.16 0 01-.238-.018.252.252 0 01-.128-.053.123.123 0 01-.041-.104v-.52a2.563 2.563 0 01-.755.57 1.955 1.955 0 01-.883.206 2.414 2.414 0 01-.737-.107 1.598 1.598 0 01-.563-.316 1.387 1.387 0 01-.36-.5 1.686 1.686 0 01-.131-.68 1.593 1.593 0 01.179-.781c.123-.222.299-.41.512-.545a2.47 2.47 0 01.816-.323 4.933 4.933 0 011.085-.11h.714v-.408a2.11 2.11 0 00-.064-.537.918.918 0 00-.205-.39.87.87 0 00-.363-.233 1.622 1.622 0 00-.553-.08 2.118 2.118 0 00-.627.086c-.168.047-.331.11-.488.187a5.19 5.19 0 00-.351.185.476.476 0 01-.21.086.137.137 0 01-.079-.023.212.212 0 01-.061-.07.36.36 0 01-.039-.12 1.088 1.088 0 010-.162.884.884 0 01.021-.23.33.33 0 01.097-.16c.078-.07.164-.13.256-.178a2.65 2.65 0 01.437-.187c.177-.06.357-.108.54-.141a3.17 3.17 0 01.591-.055c.32-.008.64.036.947.128.238.072.454.202.632.378.166.171.286.383.35.614.077.28.114.57.111.86l-.003 3.556zm-.942-2.404h-.811a3.041 3.041 0 00-.678.067c-.169.036-.33.103-.476.198a.832.832 0 00-.279.316.985.985 0 00-.089.424.871.871 0 00.256.651c.199.172.455.26.716.245a1.32 1.32 0 00.691-.192 3.09 3.09 0 00.67-.592V34.33zm8.876.883c.005.256-.048.509-.153.74a1.422 1.422 0 01-.461.545 2.24 2.24 0 01-.768.333c-.346.08-.701.118-1.056.112h-.712l-.33-.02-.325-.03a.445.445 0 01-.338-.158.474.474 0 01-.109-.362v-4.533a.572.572 0 01.105-.368.464.464 0 01.325-.15c.099-.014.207-.024.319-.032l.348-.018c.118 0 .241 0 .366-.016.126-.016.256 0 .387 0 .324-.005.647.027.964.094.24.05.468.142.676.273.171.108.309.262.399.446.09.187.135.393.13.602a1.25 1.25 0 01-.233.76 1.274 1.274 0 01-.685.448c.329.055.631.222.854.475.196.242.301.546.297.86zM173.8 32.77a.813.813 0 00-.069-.344.62.62 0 00-.228-.26 1.184 1.184 0 00-.407-.16 3.082 3.082 0 00-.606-.052c-.179 0-.345 0-.494.016-.148.015-.276.02-.378.031v1.636h.964a1.54 1.54 0 00.906-.224.746.746 0 00.312-.643zm.171 2.462a.97.97 0 00-.079-.412.708.708 0 00-.256-.297 1.29 1.29 0 00-.448-.175 3.096 3.096 0 00-.647-.06h-.923v1.866c.071 0 .148.02.227.028l.241.016.256.016h.227c.215.003.428-.02.637-.068a1.27 1.27 0 00.44-.195.78.78 0 00.256-.313c.055-.128.083-.267.082-.407h-.013zm8.759 1.241a.983.983 0 01-.018.188.442.442 0 01-.046.122.191.191 0 01-.067.068.159.159 0 01-.077.018h-3.881a.14.14 0 01-.074-.018.239.239 0 01-.067-.068.359.359 0 01-.048-.123.739.739 0 01-.018-.187.7.7 0 01.061-.307.202.202 0 01.061-.076.145.145 0 01.085-.026h1.55v-5.752l-1.435.872a.636.636 0 01-.177.07.116.116 0 01-.104-.025.218.218 0 01-.057-.128 1.82 1.82 0 01-.013-.221 1.595 1.595 0 010-.17.586.586 0 01.026-.117.284.284 0 01.049-.08.619.619 0 01.084-.071l1.712-1.118a.218.218 0 01.056-.028l.087-.024a.725.725 0 01.12-.015h.172c.076-.005.153-.005.23 0a.63.63 0 01.143.03.115.115 0 01.069.053c.012.02.018.044.018.068v6.648h1.344a.16.16 0 01.087.026.22.22 0 01.066.076.937.937 0 01.062.315zm7.683.294a.102.102 0 01-.021.063.151.151 0 01-.074.041.582.582 0 01-.143.026 1.845 1.845 0 01-.228 0c-.085.005-.17.005-.256 0a.967.967 0 01-.163-.03.2.2 0 01-.092-.053.19.19 0 01-.041-.073l-.55-1.362a3.043 3.043 0 00-.221-.454 1.011 1.011 0 00-.624-.477 1.785 1.785 0 00-.455-.06h-.402v2.369a.089.089 0 01-.028.057.183.183 0 01-.087.047.806.806 0 01-.148.029 1.682 1.682 0 01-.213 0 1.63 1.63 0 01-.212 0 .821.821 0 01-.151-.029.148.148 0 01-.082-.047.083.083 0 01-.026-.057v-5.338c0-.011.003-.022.007-.032a.086.086 0 01.019-.026.218.218 0 01.082-.044c.05-.012.1-.02.151-.026h.425c.049.005.099.014.148.026.031.01.06.025.087.044a.087.087 0 01.02.026c.005.01.007.02.008.032v2.204h.402c.134 0 .268-.016.399-.05a.986.986 0 00.33-.164c.102-.083.189-.183.256-.297a2.29 2.29 0 00.217-.438l.481-1.208a.199.199 0 01.041-.084.208.208 0 01.087-.057.58.58 0 01.151-.034h.481a.862.862 0 01.138.026.154.154 0 01.067.044.116.116 0 01.018.058.45.45 0 01-.016.11 1.077 1.077 0 01-.043.135l-.486 1.161a2.394 2.394 0 01-.527.821 1.234 1.234 0 01-.282.206 1.7 1.7 0 01-.276.115c.129.044.253.1.371.169.115.069.221.152.315.247.104.104.196.22.273.347a3 3 0 01.236.466l.568 1.332a.517.517 0 01.036.075.39.39 0 01.015.068v.052a.18.18 0 01.018.044zm5.13-.034a.152.152 0 01-.023.08.178.178 0 01-.074.056.504.504 0 01-.144.033 1.839 1.839 0 01-.23 0 1.88 1.88 0 01-.235 0 .556.556 0 01-.146-.033.187.187 0 01-.077-.055.152.152 0 01-.023-.08V32.13h-1.417c-.062.62-.135 1.171-.22 1.654a12.12 12.12 0 01-.29 1.264 4.685 4.685 0 01-.363.906c-.115.22-.264.42-.44.594-.146.144-.32.254-.512.323a1.71 1.71 0 01-.593.102.256.256 0 01-.09-.018.146.146 0 01-.059-.066.45.45 0 01-.035-.13 1.637 1.637 0 010-.221v-.227a.563.563 0 01.028-.14.145.145 0 01.053-.071.17.17 0 01.077-.018.77.77 0 00.361-.089.99.99 0 00.322-.3c.116-.168.21-.351.282-.544.101-.268.181-.544.24-.826.074-.328.141-.71.208-1.149.066-.437.125-.943.184-1.51 0-.094.029-.185.082-.261a.252.252 0 01.204-.086h2.654a.271.271 0 01.214.086.375.375 0 01.077.26l-.015 5.07zm6.005 0a.135.135 0 01-.023.076.155.155 0 01-.074.054.712.712 0 01-.144.032 2.033 2.033 0 01-.46 0 .79.79 0 01-.149-.032.15.15 0 01-.081-.054.135.135 0 01-.023-.076v-3.494c0-.156.015-.312.028-.466-.09.156-.185.31-.289.459l-.32.448-2.18 3.053-.072.08a.226.226 0 01-.082.056.384.384 0 01-.122.028 1.215 1.215 0 01-.185 0 1.46 1.46 0 01-.207 0 .617.617 0 01-.128-.031.127.127 0 01-.069-.055.154.154 0 01-.02-.075v-5.278c0-.027.007-.053.02-.076a.146.146 0 01.074-.057.552.552 0 01.146-.034h.225a1.13 1.13 0 01.379.044.138.138 0 01.072.048.144.144 0 01.03.082v3.499c0 .149-.018.3-.028.448.087-.148.177-.291.256-.435.079-.143.187-.281.289-.417l2.224-3.095a.553.553 0 01.071-.08.273.273 0 01.092-.055.55.55 0 01.128-.031h.399a.462.462 0 01.133.034.139.139 0 01.069.057.174.174 0 01.021.083v5.26zm5.619.034a.116.116 0 01-.021.063.151.151 0 01-.074.041.6.6 0 01-.143.026 1.845 1.845 0 01-.228 0 2.277 2.277 0 01-.256 0 .939.939 0 01-.164-.03.224.224 0 01-.092-.053.22.22 0 01-.041-.073l-.55-1.362a3.038 3.038 0 00-.22-.454 1.015 1.015 0 00-.624-.477 1.782 1.782 0 00-.448-.052h-.402v2.369a.08.08 0 01-.028.057.183.183 0 01-.087.047.79.79 0 01-.148.028 1.682 1.682 0 01-.213 0 1.63 1.63 0 01-.212 0 .837.837 0 01-.151-.028.152.152 0 01-.082-.047.087.087 0 01-.025-.057v-5.346c0-.011.002-.022.007-.032a.07.07 0 01.018-.026.218.218 0 01.082-.044c.05-.012.1-.02.151-.026h.425c.05.005.099.014.148.026a.31.31 0 01.087.044.073.073 0 01.02.026.07.07 0 01.008.032v2.204h.402c.135 0 .269-.016.399-.05a.986.986 0 00.33-.164c.102-.083.189-.183.256-.297.088-.137.161-.284.218-.438l.481-1.208a.18.18 0 01.041-.084.186.186 0 01.084-.057.624.624 0 01.154-.034h.483a.862.862 0 01.138.026.154.154 0 01.067.044.116.116 0 01.018.058.45.45 0 01-.016.11 1.077 1.077 0 01-.043.135l-.497 1.161a2.579 2.579 0 01-.255.493 2.07 2.07 0 01-.274.328 1.234 1.234 0 01-.282.206 1.826 1.826 0 01-.276.115c.129.044.253.101.371.169.115.069.221.152.315.247.104.104.196.22.274.347.091.148.17.304.235.466l.568 1.332a.517.517 0 01.036.075.39.39 0 01.015.068v.052c.018.01.021.034.021.044z" fill="#484848"/><path d="M12.312 0v5.969h-6.45v6.567H0V0h12.312zM0 25.477h5.862v6.565h6.45v5.968H0V25.477zM25.02 38.01v-5.968h6.448v-6.565h5.862V38.01H25.02zm12.31-25.474h-5.862V5.97H25.02V0h12.31v12.536z" fill="#7421B0"/></svg>