<svg width="250" height="39" viewBox="0 0 250 39" fill="none" xmlns="http://www.w3.org/2000/svg">
<path d="M58.9653 15.8919C58.9882 16.8582 58.7884 17.8165 58.3819 18.6899C58.0037 19.4707 57.4432 20.1452 56.7495 20.6542C55.9927 21.1948 55.1417 21.5839 54.2421 21.8005C53.2065 22.059 52.1433 22.185 51.0771 22.1757C50.0945 22.1776 49.1127 22.1175 48.1373 21.9959C47.1843 21.8758 46.2428 21.6745 45.3228 21.3941V17.7468C45.7757 17.9084 46.2465 18.0595 46.7403 18.2001C47.2341 18.3408 47.7279 18.4607 48.2268 18.5675C48.7258 18.6743 49.2196 18.755 49.7108 18.828C50.1863 18.8864 50.6647 18.916 51.1436 18.9166C51.7353 18.9271 52.3261 18.8668 52.904 18.7368C53.3236 18.6428 53.7237 18.4744 54.086 18.2392C54.3689 18.0532 54.5984 17.7944 54.7513 17.4889C54.8915 17.1879 54.9624 16.8582 54.9585 16.525C54.9725 16.0842 54.8279 15.6533 54.5517 15.3136C54.2485 14.9618 53.8853 14.6687 53.4796 14.4486C52.9946 14.1794 52.4878 13.9528 51.9649 13.7713C51.3995 13.5707 50.8213 13.3544 50.2353 13.1226C49.6463 12.8917 49.069 12.6309 48.5057 12.341C47.9512 12.0576 47.4408 11.6924 46.991 11.2573C46.5412 10.8174 46.1781 10.2938 45.9216 9.71497C45.6404 9.02502 45.5111 8.2807 45.5429 7.53441C45.5398 6.78214 45.6796 6.03636 45.9548 5.33821C46.2368 4.63153 46.6838 4.00555 47.2571 3.51457C47.9281 2.95446 48.7011 2.53481 49.5317 2.2797C50.6167 1.95323 51.7447 1.79945 52.8758 1.82378C53.2622 1.82378 53.6613 1.84202 54.0809 1.87589C54.5005 1.90976 54.915 1.95665 55.3218 2.01136C55.7286 2.06607 56.1252 2.1338 56.5039 2.20936C56.8826 2.28491 57.2305 2.36046 57.5478 2.44122V5.82799C57.2128 5.69899 56.8711 5.58854 56.5244 5.49713C56.1508 5.39466 55.7645 5.30782 55.3653 5.23661C54.9662 5.1654 54.5645 5.10809 54.1602 5.06467C53.756 5.02559 53.3722 5.00475 53.0088 5.00475C52.4623 4.99451 51.9163 5.04782 51.3816 5.16366C50.9959 5.24488 50.6265 5.39198 50.2891 5.59873C50.0221 5.76235 49.8064 6.00001 49.6673 6.2839C49.537 6.56563 49.4713 6.8739 49.4754 7.18531C49.4692 7.58018 49.6152 7.96181 49.8823 8.24823C50.1952 8.57439 50.5603 8.84397 50.962 9.04543C51.4538 9.29961 51.9615 9.52065 52.4818 9.70715C53.0498 9.91209 53.6314 10.1327 54.2267 10.3689C54.8219 10.6057 55.4044 10.8744 55.9717 11.1739C56.5262 11.4676 57.0385 11.8376 57.4941 12.2733C57.9407 12.7119 58.3018 13.2325 58.5584 13.8078C58.8436 14.4633 58.9825 15.1751 58.9653 15.8919Z" fill="#7421B0"/>
<path d="M73.8256 21.2429C73.1157 21.5349 72.3785 21.7523 71.6252 21.8916C70.8397 22.0333 70.0434 22.1039 69.2457 22.1026C68.1566 22.1186 67.0723 21.9504 66.0372 21.605C65.1373 21.3013 64.3149 20.7976 63.6296 20.1305C62.9506 19.4505 62.4326 18.6219 62.1149 17.7076C61.7471 16.6348 61.5695 15.5039 61.5904 14.3678C61.5747 13.2325 61.7673 12.1042 62.1584 11.0409C62.5065 10.0874 63.0524 9.22148 63.7588 8.50217C64.4653 7.78285 65.3157 7.22703 66.2522 6.87257C67.2897 6.47987 68.3897 6.28642 69.4964 6.30203C70.3196 6.29184 71.1423 6.34409 71.9578 6.45834C72.5625 6.55238 73.1607 6.68552 73.7488 6.85694V10.4209C73.1159 10.1025 72.4488 9.86036 71.7608 9.69922C71.0956 9.53358 70.414 9.44617 69.7293 9.4387C69.1154 9.42924 68.506 9.54713 67.9383 9.78519C67.4257 10.001 66.9662 10.3293 66.5924 10.7465C66.2141 11.1811 65.9291 11.6913 65.7558 12.2445C65.5578 12.8688 65.4602 13.5216 65.4667 14.1776C65.4543 14.8489 65.5573 15.5172 65.7711 16.1523C65.9606 16.7032 66.2603 17.2079 66.6513 17.6347C67.0342 18.0436 67.5006 18.362 68.0176 18.5674C68.5829 18.7893 69.1848 18.899 69.7907 18.8904C70.1244 18.8902 70.4577 18.8675 70.7885 18.8227C71.1416 18.778 71.4918 18.7128 71.8376 18.6273C72.1881 18.5413 72.5335 18.4449 72.8738 18.3355C73.2141 18.2261 73.5314 18.1036 73.8256 17.9734V21.2429Z" fill="#7421B0"/>
<path d="M87.0765 12.4871C87.1004 11.9984 87.0729 11.5084 86.9946 11.0256C86.9393 10.6747 86.8186 10.3378 86.639 10.033C86.4958 9.78952 86.2884 9.59185 86.0403 9.46247C85.7881 9.33667 85.51 9.27415 85.2292 9.2801C84.6219 9.30949 84.0418 9.54521 83.5815 9.94964C82.8522 10.5848 82.2216 11.3288 81.7112 12.1563V21.832H78.0166V6.54203H81.2839L81.4169 8.76948C81.6559 8.39156 81.9357 8.04203 82.251 7.7274C82.5574 7.41607 82.9012 7.14558 83.2745 6.92239C83.67 6.68982 84.0954 6.51445 84.5384 6.40135C85.0365 6.27723 85.5479 6.21684 86.0608 6.22159C86.7529 6.20833 87.44 6.34416 88.0769 6.62019C88.6593 6.88232 89.1677 7.28899 89.5558 7.80295C89.9831 8.38653 90.2855 9.0548 90.4436 9.76467C90.6489 10.6598 90.735 11.579 90.6995 12.4975L87.0765 12.4871Z" fill="#7421B0"/>
<path d="M106.222 13.0259C106.222 13.276 106.215 13.6017 106.199 14.0029C106.184 14.4041 106.164 14.7845 106.133 15.131H96.2619C96.2498 15.7374 96.3523 16.3406 96.5638 16.9077C96.7515 17.3965 97.0443 17.8363 97.4209 18.1947C97.8061 18.5467 98.2593 18.8129 98.7514 18.9762C99.3074 19.159 99.8892 19.247 100.473 19.2368C101.257 19.2328 102.04 19.1753 102.817 19.0648C103.695 18.9379 104.562 18.7481 105.414 18.4969V21.4251C105.03 21.5346 104.611 21.6344 104.158 21.7247C103.704 21.8151 103.241 21.8949 102.768 21.9644C102.298 22.0348 101.819 22.0895 101.336 22.1233C100.852 22.1572 100.384 22.1754 99.9309 22.1754C98.8871 22.1916 97.8484 22.0242 96.8606 21.6805C95.9945 21.3741 95.2073 20.8727 94.5578 20.2137C93.9065 19.5321 93.4118 18.7117 93.1097 17.8117C92.7536 16.747 92.5805 15.6277 92.598 14.5031C92.5876 13.3534 92.7604 12.2097 93.1097 11.1163C93.4138 10.1634 93.895 9.27898 94.5271 8.51112C95.1355 7.78626 95.8963 7.21016 96.7531 6.82555C97.6731 6.41939 98.6673 6.21692 99.6699 6.23156C100.631 6.21503 101.587 6.38661 102.484 6.73697C103.26 7.04654 103.959 7.52695 104.531 8.14378C105.095 8.76264 105.523 9.49606 105.788 10.2957C106.083 11.1742 106.23 12.0974 106.222 13.0259ZM102.556 12.5049C102.575 11.9747 102.5 11.4453 102.336 10.9418C102.199 10.5326 101.98 10.1565 101.694 9.83717C101.43 9.55113 101.107 9.32939 100.747 9.18847C100.377 9.04605 99.9839 8.97451 99.588 8.97745C99.1726 8.96356 98.759 9.03898 98.3741 9.19878C97.9893 9.35859 97.6418 9.59919 97.3544 9.90491C96.7744 10.5197 96.4333 11.3881 96.3309 12.5101L102.556 12.5049Z" fill="#7421B0"/>
<path d="M121.955 13.0263C121.955 13.2764 121.948 13.602 121.932 14.0032C121.917 14.4044 121.896 14.7848 121.866 15.1313H111.995C111.983 15.7378 112.085 16.3409 112.297 16.908C112.484 17.3969 112.777 17.8366 113.154 18.195C113.539 18.547 113.992 18.8132 114.484 18.9766C115.04 19.1593 115.622 19.2473 116.206 19.2371C116.989 19.2332 117.771 19.1757 118.547 19.0652C119.424 18.9382 120.291 18.7485 121.142 18.4972V21.4255C120.758 21.5349 120.339 21.6348 119.885 21.7251C119.432 21.8154 118.969 21.8953 118.496 21.9647C118.023 22.0351 117.547 22.0898 117.063 22.1237C116.58 22.1575 116.111 22.1758 115.659 22.1758C114.615 22.1922 113.576 22.0247 112.588 21.6808C111.722 21.375 110.935 20.8736 110.286 20.214C109.634 19.5324 109.14 18.712 108.837 17.812C108.481 16.7473 108.308 15.6281 108.326 14.5034C108.315 13.3538 108.488 12.21 108.837 11.1167C109.14 10.1632 109.622 9.2785 110.255 8.51145C110.863 7.78723 111.623 7.21121 112.478 6.82588C113.396 6.41353 114.389 6.20398 115.392 6.21105C116.354 6.19452 117.309 6.3661 118.207 6.71646C118.983 7.02604 119.682 7.50644 120.254 8.12327C120.825 8.73994 121.262 9.47352 121.533 10.2752C121.826 11.1611 121.969 12.0915 121.955 13.0263ZM118.289 12.5052C118.307 11.975 118.233 11.4457 118.069 10.9421C117.931 10.5324 117.712 10.1563 117.424 9.8375C117.162 9.55103 116.839 9.32917 116.48 9.1888C116.109 9.04612 115.715 8.97458 115.318 8.97778C114.906 8.96078 114.494 9.03198 114.11 9.18679C113.727 9.34159 113.379 9.57657 113.09 9.87658C112.51 10.4914 112.169 11.3598 112.066 12.4818L118.289 12.5052Z" fill="#7421B0"/>
<path d="M133.558 21.8321V11.8698C133.558 10.1955 132.948 9.3575 131.726 9.35576C131.071 9.37469 130.447 9.64337 129.976 10.1087C129.318 10.7261 128.725 11.4124 128.208 12.1564V21.8321H124.603V6.54213H127.722L127.809 8.80085C128.104 8.42261 128.422 8.06489 128.764 7.73011C129.087 7.41443 129.447 7.13976 129.836 6.91207C130.225 6.68404 130.642 6.50888 131.077 6.39103C131.564 6.26559 132.065 6.20517 132.568 6.21127C133.258 6.19529 133.944 6.32571 134.582 6.59424C135.135 6.83792 135.626 7.20888 136.015 7.678C136.416 8.17288 136.712 8.74672 136.885 9.36357C137.085 10.0802 137.182 10.8226 137.174 11.5676V21.8321H133.558Z" fill="#7421B0"/>
<path d="M152.725 17.3328C152.748 18.1169 152.551 18.8914 152.157 19.5655C151.778 20.1813 151.262 20.6973 150.65 21.0713C149.991 21.4701 149.272 21.7545 148.521 21.9128C147.722 22.0887 146.908 22.1761 146.09 22.1733C145.093 22.1791 144.096 22.1269 143.105 22.017C142.258 21.919 141.419 21.765 140.592 21.5559V18.2499C141.484 18.6306 142.413 18.9153 143.363 19.0992C144.222 19.2684 145.095 19.3556 145.97 19.3597C146.917 19.3597 147.623 19.2086 148.091 18.9012C148.301 18.7848 148.477 18.6137 148.601 18.4054C148.724 18.1972 148.791 17.9591 148.795 17.7158C148.796 17.4957 148.746 17.2784 148.646 17.0827C148.51 16.8552 148.319 16.6668 148.091 16.5356C147.729 16.3153 147.346 16.1337 146.948 15.9938C146.453 15.8062 145.807 15.5978 145.011 15.3685C144.344 15.1852 143.694 14.9456 143.066 14.6521C142.558 14.4196 142.091 14.1027 141.685 13.7142C141.326 13.3597 141.046 12.9305 140.866 12.4559C140.673 11.9187 140.58 11.3498 140.592 10.7781C140.59 10.1658 140.732 9.56178 141.007 9.017C141.3 8.43844 141.722 7.93789 142.24 7.55547C142.858 7.1038 143.551 6.77013 144.287 6.5707C145.221 6.31356 146.187 6.19165 147.155 6.20858C147.995 6.20169 148.834 6.25217 149.667 6.35968C150.394 6.45868 151.041 6.5707 151.602 6.69054V9.68654C150.813 9.42339 150.006 9.22476 149.186 9.09255C148.445 8.9789 147.697 8.92143 146.948 8.92061C146.326 8.8897 145.707 9.03009 145.157 9.32702C144.952 9.43244 144.781 9.59395 144.662 9.79329C144.543 9.99263 144.481 10.2219 144.484 10.4551C144.48 10.6687 144.525 10.8803 144.617 11.0725C144.741 11.2877 144.917 11.467 145.128 11.5936C145.476 11.802 145.841 11.9765 146.221 12.1146C146.688 12.3004 147.307 12.5036 148.076 12.7242C148.834 12.9353 149.574 13.2107 150.287 13.5475C150.816 13.7867 151.302 14.1142 151.724 14.5166C152.07 14.8626 152.333 15.2852 152.492 15.7515C152.655 16.2618 152.734 16.7962 152.725 17.3328Z" fill="#7421B0"/>
<path d="M165.029 21.8321V11.8698C165.029 10.1955 164.418 9.35747 163.197 9.35573C162.542 9.37567 161.918 9.6442 161.447 10.1086C160.79 10.7269 160.199 11.4131 159.682 12.1563V21.8321H156.074V0.568359H159.679V5.80483L159.503 8.57417C159.787 8.21968 160.095 7.88543 160.424 7.57377C160.733 7.28252 161.077 7.03217 161.447 6.82868C161.82 6.62485 162.217 6.47074 162.629 6.37016C163.089 6.25967 163.561 6.20631 164.034 6.21124C164.726 6.19415 165.413 6.3246 166.053 6.59421C166.607 6.83721 167.099 7.20825 167.488 7.67798C167.888 8.17308 168.183 8.7469 168.355 9.36355C168.555 10.0803 168.651 10.8227 168.642 11.5676V21.8321H165.029Z" fill="#7421B0"/>
<path d="M185.329 14.0684C185.339 15.1908 185.166 16.307 184.817 17.3718C184.512 18.319 184.019 19.1923 183.369 19.9379C182.727 20.6587 181.935 21.224 181.051 21.5922C180.055 21.998 178.989 22.1973 177.917 22.1784C176.901 22.1953 175.889 22.0276 174.931 21.6834C174.086 21.3708 173.324 20.8624 172.705 20.1985C172.064 19.4911 171.585 18.6488 171.3 17.7313C170.957 16.6138 170.793 15.4474 170.814 14.2768C170.801 13.1516 170.974 12.0322 171.326 10.9656C171.636 10.0242 172.134 9.15844 172.789 8.42291C173.438 7.71205 174.232 7.1545 175.115 6.78944C176.103 6.39046 177.159 6.19392 178.221 6.21108C179.243 6.19433 180.258 6.36555 181.22 6.71649C182.067 7.03238 182.831 7.54428 183.451 8.21188C184.089 8.92068 184.566 9.76391 184.848 10.6816C185.185 11.7771 185.348 12.9205 185.329 14.0684ZM181.576 14.1596C181.576 12.5721 181.282 11.3807 180.695 10.5852C180.109 9.78977 179.244 9.3877 178.101 9.37902C177.542 9.36207 176.988 9.49123 176.492 9.75417C176.049 10.0058 175.673 10.3635 175.397 10.7963C175.098 11.2622 174.886 11.7795 174.77 12.3229C174.633 12.9349 174.566 13.5607 174.57 14.1882C174.57 15.7844 174.885 16.9862 175.514 17.7938C175.821 18.1897 176.215 18.5059 176.664 18.7165C177.114 18.9271 177.606 19.026 178.101 19.0053C178.646 19.0179 179.185 18.8907 179.669 18.6353C180.108 18.3934 180.479 18.0409 180.747 17.6115C181.039 17.1374 181.249 16.6157 181.368 16.0692C181.511 15.4422 181.58 14.8004 181.576 14.157V14.1596Z" fill="#7421B0"/>
<path d="M199.923 21.6802C199.273 21.8313 198.618 21.9512 197.958 22.0397C197.336 22.1278 196.708 22.173 196.08 22.1752C195.217 22.1927 194.356 22.0866 193.522 21.86C192.866 21.6813 192.259 21.3515 191.749 20.8961C191.269 20.4479 190.912 19.8805 190.712 19.2496C190.476 18.4775 190.364 17.6717 190.38 16.8632V9.40187H186.358V6.53614H190.39V2.62832L194.085 1.65137V6.54135H199.923V9.40708H194.085V16.5975C194.085 17.4659 194.282 18.1258 194.676 18.5774C195.07 19.029 195.73 19.2522 196.656 19.247C197.236 19.2484 197.814 19.1979 198.386 19.0959C198.903 19.0073 199.415 18.8916 199.921 18.7494L199.923 21.6802Z" fill="#7421B0"/>
<path d="M216.349 13.026C216.349 13.2761 216.342 13.6017 216.326 14.0029C216.326 14.4041 216.291 14.7845 216.26 15.131H206.389C206.378 15.7376 206.481 16.3408 206.693 16.9077C206.879 17.3975 207.172 17.8377 207.55 18.1947C207.934 18.5472 208.387 18.8135 208.878 18.9763C209.434 19.159 210.016 19.247 210.6 19.2368C211.384 19.2328 212.167 19.1753 212.944 19.0648C213.82 18.9376 214.686 18.7479 215.536 18.4969V21.4251C215.152 21.5346 214.735 21.6336 214.28 21.7247C213.824 21.8159 213.364 21.8967 212.893 21.9644C212.422 22.0322 211.941 22.0895 211.457 22.1233C210.974 22.1572 210.508 22.1755 210.055 22.1755C209.011 22.1915 207.973 22.0241 206.985 21.6805C206.119 21.3741 205.332 20.8727 204.682 20.2137C204.032 19.5314 203.537 18.7112 203.234 17.8117C202.878 16.747 202.705 15.6277 202.722 14.5031C202.712 13.3534 202.885 12.2097 203.234 11.1163C203.538 10.1627 204.02 9.27803 204.654 8.51112C205.261 7.78573 206.021 7.20949 206.877 6.82555C207.798 6.41941 208.793 6.21696 209.797 6.23157C210.758 6.21497 211.714 6.38655 212.611 6.73698C213.387 7.04754 214.085 7.52781 214.658 8.14379C215.22 8.76401 215.648 9.49702 215.914 10.2957C216.209 11.1746 216.356 12.0975 216.349 13.026ZM212.686 12.5049C212.705 11.9745 212.629 11.4449 212.463 10.9418C212.327 10.5321 212.108 10.1559 211.821 9.83718C211.558 9.55065 211.234 9.32883 210.874 9.18848C210.504 9.04583 210.111 8.97428 209.715 8.97746C209.3 8.96361 208.887 9.03906 208.502 9.19887C208.118 9.35868 207.771 9.59927 207.484 9.90491C206.901 10.5197 206.558 11.3899 206.46 12.5101L212.686 12.5049Z" fill="#7421B0"/>
<path d="M228.669 12.4871C228.694 11.9984 228.667 11.5083 228.587 11.0256C228.53 10.6743 228.408 10.3374 228.226 10.033C228.083 9.79023 227.877 9.5927 227.63 9.46247C227.377 9.3374 227.098 9.27492 226.817 9.2801C226.209 9.30948 225.629 9.54521 225.169 9.94964C224.44 10.5848 223.809 11.3287 223.299 12.1563V21.832H219.609V6.54203H222.876L223.009 8.76948C223.248 8.39156 223.528 8.04202 223.843 7.7274C224.15 7.41607 224.494 7.14557 224.867 6.92239C225.263 6.69024 225.688 6.5149 226.131 6.40135C226.629 6.27722 227.14 6.21684 227.653 6.22159C228.346 6.20835 229.034 6.34417 229.672 6.62018C230.254 6.8824 230.761 7.28909 231.148 7.80295C231.576 8.38601 231.879 9.05447 232.036 9.76467C232.241 10.6598 232.327 11.579 232.292 12.4975L228.669 12.4871Z" fill="#7421B0"/>
<path d="M244.489 15.1491V21.003H241.163V15.1491H235.646V12.1244H241.157V6.30176H244.484V12.1244H250V15.1491H244.489Z" fill="#7421B0"/>
<path d="M49.8413 35.8037C49.8443 35.8584 49.8443 35.9132 49.8413 35.9678C49.8391 36.0093 49.8323 36.0504 49.8209 36.0903C49.8132 36.1231 49.8011 36.1546 49.7851 36.1841C49.7615 36.2201 49.734 36.2533 49.7032 36.2831C49.6289 36.35 49.5483 36.4093 49.4627 36.4602C49.3182 36.5524 49.1658 36.6309 49.0072 36.6947C48.8041 36.7772 48.5944 36.8417 48.3804 36.8875C48.128 36.9412 47.8707 36.9674 47.6128 36.9656C47.1662 36.9727 46.7227 36.8894 46.3079 36.7207C45.9259 36.5618 45.5858 36.3137 45.3152 35.9965C45.0252 35.6509 44.8099 35.247 44.6832 34.8111C44.5268 34.286 44.4517 33.7393 44.4606 33.1907C44.4519 32.6221 44.5322 32.0558 44.6986 31.5129C44.8391 31.0553 45.0669 30.6303 45.3689 30.2624C45.6472 29.9261 45.9973 29.6587 46.3924 29.4809C46.8121 29.3001 47.2646 29.2113 47.7203 29.2204C47.9307 29.2199 48.1407 29.2408 48.3471 29.2829C48.5378 29.322 48.7258 29.3733 48.91 29.4366C49.0692 29.4943 49.2226 29.5676 49.368 29.6554C49.4683 29.711 49.5619 29.7783 49.6469 29.856C49.6843 29.8921 49.7178 29.9323 49.7467 29.9759C49.7634 30.0062 49.7763 30.0386 49.7851 30.0723C49.7965 30.1158 49.8042 30.1602 49.8081 30.2051C49.8111 30.265 49.8111 30.325 49.8081 30.3849C49.8125 30.4508 49.8125 30.517 49.8081 30.5829C49.802 30.6303 49.79 30.6767 49.7723 30.7209C49.7605 30.7524 49.7422 30.7808 49.7185 30.8043C49.6955 30.8214 49.6677 30.8306 49.6392 30.8304C49.5548 30.8153 49.4765 30.7755 49.4141 30.7157C49.2953 30.6219 49.1714 30.5349 49.0431 30.4552C48.867 30.3498 48.681 30.2625 48.4878 30.1947C48.2348 30.1133 47.9703 30.0745 47.7049 30.0801C47.3925 30.076 47.0834 30.1455 46.8017 30.2833C46.5268 30.42 46.2888 30.623 46.1083 30.8747C45.9024 31.1625 45.7506 31.4866 45.6606 31.8308C45.5474 32.2551 45.494 32.6937 45.502 33.1334C45.4961 33.5621 45.5469 33.9897 45.6529 34.4047C45.7378 34.7397 45.8874 35.0541 46.093 35.3296C46.2772 35.5728 46.5182 35.7653 46.7941 35.8897C47.0909 36.0211 47.412 36.086 47.7356 36.0799C47.9955 36.0841 48.2544 36.0472 48.5032 35.9704C48.6997 35.903 48.8891 35.8157 49.0686 35.7099C49.2247 35.6187 49.3526 35.5354 49.4524 35.4624C49.5191 35.4019 49.6019 35.3629 49.6904 35.3504C49.7165 35.3484 49.7424 35.356 49.7635 35.3718C49.7846 35.3875 49.7995 35.4104 49.8055 35.4364C49.8202 35.4801 49.8288 35.5257 49.8311 35.5718C49.8362 35.6396 49.8413 35.7125 49.8413 35.8037Z" fill="#484848"/>
<path d="M54.9022 36.7672C54.902 36.7897 54.8949 36.8116 54.8818 36.8297C54.8614 36.8504 54.8356 36.8648 54.8076 36.8714C54.761 36.8859 54.7129 36.8947 54.6643 36.8974C54.5884 36.9021 54.5124 36.9021 54.4366 36.8974C54.3513 36.9022 54.2659 36.9022 54.1807 36.8974C54.1253 36.892 54.0705 36.8815 54.017 36.8662C53.9826 36.8565 53.951 36.8387 53.9248 36.8141C53.9064 36.7929 53.8924 36.7681 53.8839 36.7411L53.3338 35.3786C53.2729 35.2216 53.1993 35.0699 53.1138 34.9253C53.0417 34.8066 52.9489 34.7024 52.84 34.6179C52.7348 34.5392 52.6159 34.4817 52.4895 34.4485C52.3429 34.4122 52.1925 34.3947 52.0417 34.3964H51.64V36.7646C51.6382 36.7866 51.6282 36.8072 51.6119 36.8219C51.5875 36.8451 51.5575 36.8613 51.5249 36.8688C51.4764 36.883 51.4267 36.8926 51.3765 36.8974C51.3058 36.9019 51.2348 36.9019 51.1641 36.8974C51.0934 36.902 51.0225 36.902 50.9518 36.8974C50.9007 36.8926 50.8502 36.883 50.8008 36.8688C50.7692 36.8626 50.7405 36.8461 50.7189 36.8219C50.7034 36.8069 50.6942 36.7863 50.6933 36.7646V31.4187C50.6935 31.4078 50.6958 31.3971 50.7002 31.3873C50.7046 31.3774 50.711 31.3686 50.7189 31.3614C50.7428 31.3408 50.7707 31.3257 50.8008 31.3171C50.8505 31.3052 50.901 31.2965 50.9518 31.291C51.0132 31.291 51.0822 31.291 51.1641 31.291C51.246 31.291 51.3151 31.291 51.3765 31.291C51.4265 31.2964 51.476 31.3051 51.5249 31.3171C51.556 31.327 51.5854 31.3419 51.6119 31.3614C51.6202 31.3684 51.6269 31.3772 51.6318 31.387C51.6366 31.3969 51.6394 31.4077 51.64 31.4187V33.6227H52.0417C52.1763 33.6232 52.3104 33.6066 52.4409 33.5732C52.56 33.5399 52.6719 33.4842 52.7709 33.4091C52.873 33.3264 52.9596 33.2258 53.0268 33.1121C53.1145 32.9746 53.1874 32.8278 53.2443 32.6744L53.7253 31.4656C53.732 31.4348 53.7461 31.4062 53.7662 31.3822C53.7889 31.3558 53.818 31.336 53.8506 31.3249C53.9002 31.3071 53.9518 31.2958 54.0042 31.291C54.0681 31.291 54.15 31.291 54.26 31.291C54.37 31.291 54.4289 31.291 54.4877 31.291C54.5344 31.296 54.5806 31.3047 54.6259 31.3171C54.6515 31.3257 54.6744 31.341 54.6924 31.3614C54.7033 31.3785 54.7095 31.3983 54.7103 31.4187C54.7099 31.4557 54.7047 31.4924 54.695 31.5281C54.6833 31.5741 54.6687 31.6194 54.6515 31.6636L54.1551 32.8255C54.0878 32.9987 54.002 33.1638 53.8993 33.3179C53.8197 33.4368 53.7279 33.5469 53.6255 33.6461C53.5417 33.7279 53.4469 33.7972 53.344 33.8519C53.2553 33.8981 53.1629 33.9365 53.0677 33.9666C53.1964 34.0109 53.3206 34.0676 53.4387 34.1359C53.5535 34.2045 53.6592 34.2877 53.7534 34.3834C53.8578 34.4875 53.9497 34.6038 54.0272 34.7299C54.1189 34.878 54.1977 35.0341 54.2626 35.1962L54.8306 36.5275C54.8446 36.5516 54.8566 36.5769 54.8664 36.603C54.8737 36.6251 54.8788 36.6477 54.8818 36.6708C54.8818 36.6942 54.8818 36.7098 54.8818 36.7229C54.8818 36.7359 54.9022 36.7567 54.9022 36.7672Z" fill="#484848"/>
<path d="M60.5439 34.0132C60.549 34.4313 60.5 34.8482 60.3981 35.2533C60.3146 35.5893 60.1687 35.9059 59.9682 36.1859C59.7828 36.4361 59.5416 36.6379 59.2646 36.7747C58.9645 36.9174 58.6364 36.9887 58.3052 36.9831C58.1623 36.9843 58.0197 36.9685 57.8804 36.9362C57.7479 36.9039 57.6198 36.8549 57.4992 36.7903C57.3668 36.7171 57.2425 36.6297 57.1282 36.5298C57.0054 36.4308 56.8723 36.311 56.7367 36.1755V38.8172C56.737 38.8458 56.729 38.8739 56.7137 38.8979C56.6945 38.9236 56.6689 38.9434 56.6395 38.9553C56.5937 38.9742 56.5454 38.9865 56.4962 38.9917C56.4178 38.9964 56.3392 38.9964 56.2608 38.9917C56.1841 38.9964 56.1073 38.9964 56.0306 38.9917C55.9805 38.9864 55.9315 38.9742 55.8847 38.9553C55.8545 38.9449 55.8284 38.9248 55.8105 38.8979C55.796 38.8737 55.7889 38.8456 55.7901 38.8172V31.4653C55.7881 31.4355 55.7943 31.4057 55.808 31.3793C55.8241 31.3535 55.8485 31.3342 55.877 31.3246C55.9188 31.3071 55.9627 31.2957 56.0075 31.2907C56.0613 31.2907 56.1252 31.2907 56.202 31.2907C56.2787 31.2907 56.3504 31.2907 56.4016 31.2907C56.4455 31.296 56.4886 31.3074 56.5295 31.3246C56.5583 31.335 56.5832 31.3541 56.6011 31.3793C56.6169 31.405 56.624 31.4351 56.6216 31.4653V32.1713C56.7652 32.021 56.9163 31.8784 57.0745 31.744C57.2113 31.63 57.3587 31.5297 57.5145 31.4444C57.6581 31.3661 57.8101 31.3049 57.9674 31.2621C58.128 31.2207 58.2931 31.2006 58.4587 31.2022C58.7918 31.1915 59.1221 31.2677 59.4181 31.4236C59.6797 31.5686 59.902 31.7771 60.0655 32.0306C60.2383 32.3057 60.3614 32.6101 60.4288 32.9294C60.5072 33.2851 60.5458 33.6487 60.5439 34.0132ZM59.5614 34.1252C59.5616 33.8635 59.5419 33.6022 59.5026 33.3436C59.4676 33.1106 59.3968 32.8847 59.2928 32.6741C59.2023 32.4872 59.0667 32.3268 58.8987 32.2078C58.7152 32.0851 58.499 32.0232 58.2796 32.0306C58.1562 32.0301 58.0336 32.0495 57.9162 32.0879C57.787 32.1286 57.6638 32.1874 57.5504 32.2625C57.4125 32.3554 57.2831 32.4609 57.164 32.5777C57.012 32.7293 56.8693 32.8902 56.7367 33.0597V35.1438C56.9528 35.4226 57.203 35.6721 57.4813 35.8863C57.6941 36.0514 57.9532 36.1427 58.2207 36.1468C58.4389 36.1536 58.6539 36.0927 58.8373 35.9723C59.0112 35.8529 59.1535 35.6919 59.2518 35.5034C59.3625 35.2989 59.4419 35.0784 59.4872 34.8495C59.5355 34.612 59.5604 34.3703 59.5614 34.1278V34.1252Z" fill="#484848"/>
<path d="M66.2138 36.733C66.2137 36.76 66.2057 36.7863 66.1908 36.8086C66.1727 36.8347 66.1466 36.854 66.1166 36.8633C66.0701 36.8792 66.0221 36.8897 65.9733 36.8945C65.8966 36.8993 65.8197 36.8993 65.743 36.8945C65.6672 36.8994 65.5911 36.8994 65.5153 36.8945C65.4641 36.8893 65.4135 36.8788 65.3643 36.8633C65.3326 36.8546 65.3047 36.8354 65.285 36.8086C65.2701 36.7863 65.2621 36.76 65.262 36.733V33.7031C65.262 33.552 65.262 33.3957 65.262 33.2394C65.262 33.0831 65.2799 32.9268 65.2927 32.7731C65.2032 32.9294 65.1059 33.0831 65.001 33.2316C64.8961 33.3801 64.7887 33.5312 64.6838 33.6797L62.4987 36.733L62.4271 36.8138C62.4055 36.8384 62.3782 36.8572 62.3478 36.8685C62.3086 36.8847 62.2671 36.8943 62.2249 36.8971C62.1636 36.9016 62.102 36.9016 62.0407 36.8971C61.9717 36.902 61.9025 36.902 61.8335 36.8971C61.789 36.8916 61.7452 36.8811 61.703 36.8659C61.677 36.8561 61.6546 36.8383 61.639 36.8149C61.6234 36.7916 61.6154 36.7638 61.616 36.7356V31.4575C61.6152 31.4307 61.6223 31.4044 61.6365 31.3819C61.6538 31.3545 61.6801 31.3342 61.7107 31.3246C61.7576 31.3067 61.8066 31.2953 61.8565 31.2907C61.9179 31.2907 61.9921 31.2907 62.0817 31.2907C62.2094 31.2838 62.3374 31.2987 62.4603 31.335C62.4888 31.3428 62.5141 31.3596 62.5325 31.383C62.5509 31.4065 62.5615 31.4353 62.5627 31.4653V34.5134C62.5627 34.6645 62.5627 34.8156 62.5627 34.9641C62.5627 35.1126 62.5448 35.2637 62.532 35.4122C62.6215 35.2637 62.7111 35.1204 62.7878 34.9771C62.8646 34.8338 62.9746 34.6957 63.077 34.5603L65.3004 31.4653C65.3207 31.4361 65.3439 31.409 65.3695 31.3845C65.3964 31.3603 65.4276 31.3417 65.4616 31.3298C65.5037 31.3142 65.5475 31.3037 65.5921 31.2985C65.6407 31.2985 65.7072 31.2985 65.7865 31.2985C65.8658 31.2985 65.9349 31.2985 65.9912 31.2985C66.0369 31.3033 66.0817 31.3147 66.1243 31.3324C66.1516 31.3443 66.1747 31.3643 66.1908 31.3897C66.2055 31.4148 66.2126 31.4438 66.2112 31.4731L66.2138 36.733Z" fill="#484848"/>
<path d="M72.1522 36.7333C72.1528 36.762 72.1448 36.7901 72.1292 36.814C72.1092 36.8381 72.0837 36.8569 72.055 36.8688C72.009 36.8866 71.9608 36.898 71.9117 36.9026C71.8351 36.9074 71.7582 36.9074 71.6815 36.9026C71.6031 36.9076 71.5245 36.9076 71.4461 36.9026C71.397 36.8984 71.3487 36.887 71.3028 36.8688C71.2733 36.8583 71.2475 36.8393 71.2286 36.814C71.2118 36.7907 71.2036 36.7621 71.2056 36.7333V34.4251H68.5702V36.7333C68.5705 36.7616 68.5634 36.7894 68.5498 36.814C68.5287 36.8381 68.5024 36.8569 68.473 36.8688C68.4271 36.887 68.3788 36.8984 68.3297 36.9026C68.2513 36.9075 68.1727 36.9075 68.0943 36.9026C68.0176 36.9074 67.9407 36.9074 67.8641 36.9026C67.8142 36.898 67.7651 36.8866 67.7182 36.8688C67.6894 36.8609 67.6642 36.8431 67.6469 36.8184C67.6296 36.7937 67.6214 36.7636 67.6235 36.7333V31.4656C67.6229 31.4372 67.63 31.4093 67.644 31.3848C67.6634 31.3595 67.689 31.3397 67.7182 31.3275C67.7646 31.3074 67.8138 31.2951 67.8641 31.291C67.9255 31.291 68.0022 31.291 68.0943 31.291C68.189 31.291 68.2683 31.291 68.3297 31.291C68.3792 31.2947 68.4277 31.307 68.473 31.3275C68.5021 31.3411 68.5282 31.3606 68.5498 31.3848C68.5638 31.4093 68.5708 31.4372 68.5702 31.4656V33.607H71.2081V31.4682C71.206 31.4393 71.2141 31.4106 71.2312 31.3874C71.2506 31.3621 71.2761 31.3423 71.3054 31.3301C71.3507 31.3096 71.3992 31.2973 71.4486 31.2936C71.51 31.2936 71.5868 31.2936 71.684 31.2936C71.7813 31.2936 71.8529 31.2936 71.9143 31.2936C71.9637 31.2976 72.0121 31.3099 72.0576 31.3301C72.086 31.3437 72.1112 31.3632 72.1318 31.3874C72.1477 31.4112 72.1557 31.4394 72.1548 31.4682L72.1522 36.7333Z" fill="#484848"/>
<path d="M80.3628 36.5327C80.3671 36.5793 80.3623 36.6263 80.3487 36.671C80.3351 36.7158 80.3129 36.7573 80.2835 36.7932C80.2558 36.8215 80.2226 36.8436 80.186 36.858C80.1494 36.8723 80.1103 36.8787 80.0711 36.8766H73.846C73.8064 36.8794 73.7667 36.8734 73.7296 36.859C73.6925 36.8446 73.6589 36.8222 73.6311 36.7932C73.5735 36.7197 73.546 36.6264 73.5544 36.5327V31.4656C73.5525 31.4371 73.5597 31.4088 73.5748 31.3848C73.5947 31.3588 73.6213 31.339 73.6516 31.3275C73.699 31.3078 73.749 31.2955 73.8 31.291C73.8614 31.291 73.9382 31.291 74.0303 31.291C74.1224 31.291 74.1991 31.291 74.2605 31.291C74.3099 31.295 74.3584 31.3073 74.4038 31.3275C74.4322 31.3411 74.4575 31.3606 74.478 31.3848C74.4939 31.4086 74.502 31.4368 74.501 31.4656V36.0429H76.5019V31.4656C76.5 31.4371 76.5072 31.4088 76.5223 31.3848C76.5407 31.3595 76.5654 31.3397 76.594 31.3275C76.6376 31.3073 76.6844 31.2949 76.7321 31.291C76.7884 31.291 76.8652 31.291 76.9599 31.291C77.0545 31.291 77.1236 31.291 77.185 31.291C77.2344 31.295 77.2828 31.3073 77.3283 31.3275C77.3567 31.3411 77.3819 31.3606 77.4025 31.3848C77.4184 31.4086 77.4264 31.4368 77.4255 31.4656V36.0429H79.4238V31.4656C79.4232 31.4372 79.4302 31.4093 79.4442 31.3848C79.4637 31.3595 79.4892 31.3397 79.5184 31.3275C79.564 31.3076 79.6124 31.2953 79.6617 31.291C79.7206 31.291 79.7973 31.291 79.8894 31.291C79.9815 31.291 80.0634 31.291 80.1248 31.291C80.1751 31.2951 80.2243 31.3074 80.2707 31.3275C80.3002 31.3404 80.3264 31.36 80.3474 31.3848C80.3633 31.4086 80.3714 31.4368 80.3704 31.4656L80.3628 36.5327Z" fill="#484848"/>
<path d="M86.575 34.0375C86.5787 34.438 86.5227 34.8368 86.4087 35.2202C86.3038 35.564 86.1295 35.8817 85.897 36.1529C85.6722 36.4198 85.3892 36.6295 85.0706 36.7651C84.7056 36.9178 84.3137 36.9923 83.9192 36.9839C83.5404 36.9918 83.1636 36.9264 82.8088 36.7912C82.5053 36.6711 82.2342 36.4791 82.0182 36.231C81.8009 35.9695 81.6405 35.6641 81.5474 35.3349C81.4398 34.9468 81.3881 34.5449 81.3939 34.1417C81.3896 33.7413 81.4448 33.3425 81.5576 32.9589C81.6565 32.6163 81.8247 32.2986 82.0515 32.0262C82.2826 31.7585 82.5729 31.5505 82.8983 31.4192C83.2642 31.267 83.6571 31.1933 84.0523 31.203C84.4311 31.1938 84.8082 31.2593 85.1627 31.3958C85.4665 31.5153 85.7377 31.7074 85.9533 31.9559C86.1713 32.2163 86.3327 32.5209 86.4266 32.8495C86.5332 33.2359 86.5832 33.6362 86.575 34.0375ZM85.5925 34.1026C85.5944 33.8313 85.5679 33.5605 85.5132 33.295C85.468 33.0588 85.3813 32.8329 85.2574 32.628C85.1355 32.4367 84.9671 32.2805 84.7687 32.1747C84.5337 32.0691 84.2797 32.0146 84.0228 32.0146C83.766 32.0146 83.512 32.0691 83.277 32.1747C83.0736 32.2718 82.8976 32.4197 82.7653 32.6046C82.6288 32.803 82.5299 33.0257 82.4736 33.2611C82.4079 33.533 82.3761 33.8122 82.3789 34.0922C82.3776 34.365 82.4033 34.6374 82.4557 34.905C82.5006 35.1396 82.5873 35.3639 82.7116 35.5667C82.8335 35.7574 83.0019 35.9126 83.2003 36.0174C83.4386 36.1368 83.7024 36.1941 83.9678 36.1841C84.2174 36.1908 84.4651 36.1391 84.6919 36.033C84.8948 35.9363 85.0707 35.7894 85.2036 35.6058C85.3417 35.4092 85.4407 35.1871 85.4953 34.9519C85.5616 34.6739 85.5942 34.3887 85.5925 34.1026Z" fill="#484848"/>
<path d="M91.1472 31.7528C91.1516 31.8187 91.1516 31.8849 91.1472 31.9508C91.1421 31.997 91.1291 32.042 91.1089 32.0836C91.0955 32.1148 91.0754 32.1424 91.05 32.1644C91.0242 32.1818 90.9939 32.1909 90.963 32.1905H89.4125V36.7339C89.4131 36.7626 89.4051 36.7908 89.3895 36.8147C89.3695 36.8388 89.344 36.8575 89.3153 36.8694C89.2693 36.8873 89.2211 36.8987 89.172 36.9033C89.0936 36.9081 89.015 36.9081 88.9366 36.9033C88.8599 36.9081 88.783 36.9081 88.7063 36.9033C88.6565 36.8987 88.6074 36.8873 88.5605 36.8694C88.531 36.859 88.5052 36.84 88.4863 36.8147C88.4715 36.7906 88.4643 36.7624 88.4658 36.7339V32.1905H86.9153C86.8854 32.1898 86.8562 32.1808 86.8309 32.1644C86.804 32.1438 86.7836 32.1158 86.7721 32.0836C86.7542 32.0401 86.7413 31.9947 86.7337 31.9482C86.7236 31.8809 86.7194 31.8129 86.7209 31.745C86.7195 31.6822 86.7238 31.6194 86.7337 31.5574C86.7412 31.5105 86.755 31.465 86.7746 31.4219C86.7874 31.3897 86.8076 31.3611 86.8335 31.3386C86.8576 31.3219 86.8861 31.3128 86.9153 31.3125H90.963C90.993 31.3132 91.0222 31.3222 91.0474 31.3386C91.0741 31.3604 91.0944 31.3892 91.1063 31.4219C91.1241 31.4672 91.137 31.5144 91.1447 31.5626C91.1512 31.6258 91.1521 31.6894 91.1472 31.7528Z" fill="#484848"/>
<path d="M98.6362 36.7331C98.6361 36.76 98.6281 36.7863 98.6132 36.8086C98.5946 36.8343 98.5687 36.8534 98.539 36.8633C98.4925 36.879 98.4445 36.8894 98.3957 36.8946C98.2427 36.912 98.0882 36.912 97.9352 36.8946C97.8848 36.8891 97.8351 36.8786 97.7868 36.8633C97.7547 36.8555 97.7265 36.8361 97.7075 36.8086C97.6914 36.7869 97.6833 36.7602 97.6844 36.7331V33.7032C97.6844 33.5521 97.6844 33.3958 97.6844 33.2395C97.6844 33.0832 97.7024 32.9269 97.7126 32.7732C97.6244 32.9312 97.5279 33.0842 97.4235 33.2317C97.3186 33.3828 97.2111 33.5313 97.1036 33.6798L94.9237 36.7331L94.8521 36.8138C94.83 36.8379 94.8029 36.8565 94.7728 36.8686C94.7328 36.885 94.6904 36.8947 94.6474 36.8972C94.5869 36.9018 94.5262 36.9018 94.4657 36.8972C94.3967 36.9021 94.3275 36.9021 94.2585 36.8972C94.214 36.8917 94.1702 36.8812 94.128 36.8659C94.0994 36.8565 94.0749 36.8372 94.0589 36.8112C94.0459 36.7882 94.0389 36.7622 94.0385 36.7357V31.4575C94.0389 31.431 94.0459 31.405 94.0589 31.382C94.0768 31.3551 94.1029 31.335 94.1331 31.3247C94.181 31.3071 94.2309 31.2958 94.2815 31.2908C94.3429 31.2908 94.4171 31.2908 94.5041 31.2908C94.6319 31.2836 94.7599 31.2986 94.8828 31.3351C94.9115 31.3427 94.9372 31.3595 94.956 31.3829C94.9749 31.4063 94.986 31.4351 94.9877 31.4654V34.5134C94.9877 34.6645 94.9877 34.8157 94.9749 34.9641C94.9621 35.1126 94.9595 35.2637 94.9467 35.4122C95.0337 35.2637 95.1233 35.1205 95.2026 34.9772C95.2819 34.8339 95.3894 34.6958 95.4943 34.5603L97.7152 31.4654C97.7371 31.4367 97.761 31.4097 97.7868 31.3846C97.8137 31.3604 97.845 31.3418 97.8789 31.3299C97.921 31.314 97.9648 31.3035 98.0094 31.2986C98.058 31.2986 98.1245 31.2986 98.2038 31.2986C98.2832 31.2986 98.3522 31.2986 98.4085 31.2986C98.4534 31.3033 98.4974 31.3147 98.539 31.3325C98.5674 31.3436 98.5916 31.3637 98.6081 31.3898C98.6217 31.4154 98.6288 31.4441 98.6286 31.4732L98.6362 36.7331Z" fill="#484848"/>
<path d="M105.926 35.269C105.933 35.512 105.882 35.753 105.778 35.9717C105.673 36.1903 105.519 36.38 105.327 36.5248C105.115 36.6839 104.874 36.7998 104.618 36.866C104.307 36.9481 103.986 36.9875 103.664 36.9833C103.476 36.9838 103.289 36.969 103.104 36.939C102.943 36.9134 102.784 36.8768 102.628 36.8296C102.503 36.7917 102.382 36.742 102.267 36.6811C102.193 36.6454 102.124 36.6017 102.06 36.5508C102.025 36.5236 101.995 36.491 101.97 36.4544C101.95 36.4254 101.936 36.3926 101.929 36.358C101.929 36.3215 101.916 36.2799 101.909 36.2304C101.901 36.1809 101.909 36.1183 101.909 36.048C101.908 35.9947 101.913 35.9416 101.921 35.8891C101.925 35.853 101.935 35.8178 101.95 35.7849C101.958 35.7616 101.971 35.7403 101.988 35.7223C102.007 35.709 102.029 35.7026 102.052 35.7041C102.117 35.7138 102.178 35.7407 102.229 35.7823C102.324 35.8478 102.424 35.9061 102.528 35.9568C102.678 36.0308 102.835 36.0909 102.996 36.1366C103.221 36.1956 103.452 36.2228 103.684 36.2173C103.857 36.2184 104.028 36.1983 104.196 36.1574C104.336 36.1217 104.468 36.0599 104.585 35.9751C104.693 35.8966 104.78 35.793 104.841 35.6728C104.902 35.5418 104.931 35.3982 104.928 35.2534C104.93 35.1249 104.901 34.9978 104.843 34.8835C104.778 34.7689 104.685 34.6737 104.572 34.6073C104.426 34.5223 104.267 34.4617 104.101 34.4276C103.873 34.3824 103.641 34.3614 103.408 34.365H102.832C102.8 34.3661 102.769 34.3589 102.74 34.3442C102.716 34.3277 102.695 34.3054 102.681 34.2791C102.661 34.2432 102.65 34.203 102.648 34.1618C102.644 34.1046 102.644 34.0471 102.648 33.9899C102.645 33.9352 102.645 33.8804 102.648 33.8258C102.655 33.7876 102.667 33.7507 102.684 33.7163C102.696 33.6904 102.716 33.6686 102.74 33.6538C102.767 33.6396 102.797 33.6324 102.827 33.633H103.367C103.576 33.6365 103.784 33.6173 103.989 33.5757C104.144 33.5447 104.292 33.4856 104.426 33.4011C104.535 33.3331 104.623 33.2369 104.682 33.1223C104.739 33.0032 104.767 32.8719 104.764 32.7394C104.767 32.6214 104.74 32.5045 104.685 32.4007C104.632 32.3036 104.559 32.2198 104.47 32.1558C104.369 32.0877 104.257 32.0383 104.14 32.0099C104.002 31.977 103.861 31.9604 103.72 31.9604C103.514 31.9594 103.309 31.9874 103.111 32.0438C102.951 32.0896 102.794 32.1488 102.643 32.2209C102.51 32.2861 102.402 32.3434 102.318 32.3955C102.265 32.4363 102.204 32.4639 102.139 32.4763C102.12 32.4764 102.101 32.4709 102.085 32.4606C102.065 32.4484 102.049 32.4303 102.039 32.4085C102.023 32.3762 102.013 32.3407 102.011 32.3043C102.007 32.2506 102.007 32.1965 102.011 32.1428C102.01 32.0552 102.019 31.9679 102.037 31.8823C102.053 31.8181 102.085 31.7596 102.131 31.7129C102.205 31.6474 102.286 31.5922 102.374 31.5488C102.503 31.4789 102.638 31.423 102.779 31.3821C102.946 31.3291 103.117 31.2882 103.29 31.2596C103.475 31.2259 103.663 31.2093 103.851 31.2101C104.109 31.2075 104.367 31.2372 104.618 31.2987C104.833 31.3512 105.036 31.4449 105.217 31.5748C105.381 31.6923 105.515 31.8488 105.606 32.0308C105.701 32.2273 105.749 32.4445 105.744 32.6638C105.751 32.9468 105.661 33.2234 105.488 33.4454C105.397 33.5582 105.29 33.6566 105.171 33.7372C105.041 33.8239 104.9 33.8906 104.751 33.9352C104.906 33.9518 105.056 33.9968 105.194 34.068C105.339 34.1381 105.472 34.2333 105.585 34.3494C105.702 34.467 105.797 34.6057 105.864 34.7584C105.919 34.9225 105.94 35.0963 105.926 35.269Z" fill="#484848"/>
<path d="M110.859 36.7336C110.86 36.7534 110.856 36.7732 110.848 36.7913C110.84 36.8094 110.828 36.8254 110.813 36.8378C110.775 36.8647 110.732 36.8825 110.687 36.8899C110.61 36.9045 110.531 36.9106 110.452 36.9081C110.372 36.9102 110.292 36.9041 110.214 36.8899C110.167 36.8839 110.122 36.866 110.083 36.8378C110.07 36.8241 110.06 36.8078 110.053 36.7899C110.047 36.7719 110.044 36.7527 110.045 36.7336V36.2125C109.826 36.4495 109.566 36.643 109.277 36.7831C109.003 36.9197 108.701 36.9901 108.395 36.9889C108.144 36.9914 107.895 36.9554 107.655 36.8821C107.449 36.8168 107.259 36.7096 107.095 36.5668C106.938 36.4301 106.814 36.2591 106.732 36.0666C106.644 35.8512 106.6 35.6198 106.604 35.3867C106.595 35.115 106.656 34.8458 106.78 34.6051C106.904 34.383 107.079 34.1958 107.292 34.0606C107.543 33.9048 107.82 33.7954 108.108 33.7376C108.465 33.6609 108.829 33.6242 109.193 33.6281H109.904V33.2191C109.907 33.0381 109.886 32.8575 109.84 32.6825C109.805 32.5376 109.735 32.4036 109.638 32.2917C109.537 32.1848 109.411 32.1051 109.272 32.0598C109.095 32.0011 108.909 31.9738 108.722 31.979C108.509 31.9762 108.297 32.0052 108.093 32.065C107.925 32.1133 107.761 32.1761 107.604 32.2526C107.466 32.3203 107.348 32.3829 107.254 32.4376C107.192 32.483 107.121 32.5125 107.046 32.5235C107.017 32.5242 106.989 32.516 106.964 32.5001C106.939 32.4823 106.919 32.458 106.906 32.4298C106.886 32.3926 106.873 32.3519 106.867 32.3099C106.859 32.2565 106.854 32.2025 106.854 32.1484C106.853 32.0714 106.86 31.9945 106.875 31.9191C106.891 31.8561 106.926 31.7997 106.975 31.7576C107.053 31.6882 107.139 31.6287 107.231 31.5805C107.37 31.5039 107.517 31.4411 107.668 31.3929C107.851 31.3349 108.039 31.2913 108.228 31.2626C108.423 31.2263 108.621 31.208 108.819 31.2079C109.14 31.2002 109.461 31.2433 109.769 31.3356C110.006 31.4077 110.223 31.5373 110.401 31.7133C110.565 31.8857 110.686 32.0969 110.751 32.3281C110.827 32.6081 110.863 32.8975 110.859 33.1879V36.7336ZM109.917 34.3289H109.109C108.881 34.326 108.653 34.3487 108.431 34.3967C108.261 34.4323 108.1 34.4994 107.955 34.5947C107.836 34.6728 107.74 34.7815 107.676 34.9099C107.615 35.0427 107.584 35.1879 107.586 35.3346C107.58 35.4555 107.6 35.5762 107.644 35.6886C107.688 35.8011 107.756 35.9024 107.842 35.9859C108.04 36.1583 108.296 36.2461 108.556 36.2308C108.8 36.2317 109.04 36.165 109.249 36.038C109.499 35.8756 109.724 35.6763 109.917 35.4466V34.3289Z" fill="#484848"/>
<path d="M116.61 36.7334C116.611 36.7621 116.603 36.7903 116.587 36.8142C116.567 36.8382 116.542 36.857 116.513 36.8689C116.467 36.8868 116.419 36.8982 116.37 36.9027C116.293 36.9076 116.216 36.9076 116.14 36.9027C116.061 36.9076 115.983 36.9076 115.904 36.9027C115.854 36.8981 115.805 36.8868 115.758 36.8689C115.728 36.8583 115.7 36.8394 115.679 36.8142C115.661 36.7912 115.65 36.7629 115.648 36.7334V32.13H113.187V36.7334C113.188 36.7621 113.18 36.7903 113.164 36.8142C113.142 36.8389 113.115 36.8577 113.085 36.8689C113.038 36.8868 112.989 36.8981 112.939 36.9027C112.862 36.9076 112.785 36.9076 112.708 36.9027C112.633 36.9076 112.557 36.9076 112.481 36.9027C112.43 36.8978 112.38 36.8864 112.332 36.8689C112.304 36.8611 112.278 36.8433 112.261 36.8185C112.244 36.7938 112.236 36.7637 112.238 36.7334V31.6585C112.23 31.5644 112.258 31.4708 112.317 31.3979C112.345 31.3687 112.378 31.3458 112.415 31.331C112.452 31.3162 112.492 31.3097 112.532 31.312H116.316C116.356 31.3097 116.395 31.3162 116.432 31.3311C116.468 31.3459 116.501 31.3687 116.528 31.3979C116.584 31.4727 116.61 31.5653 116.603 31.6585L116.61 36.7334Z" fill="#484848"/>
<path d="M122.615 36.733C122.614 36.7597 122.606 36.7857 122.592 36.8085C122.573 36.8342 122.546 36.8533 122.516 36.8633C122.469 36.8792 122.421 36.8897 122.372 36.8945C122.22 36.912 122.066 36.912 121.914 36.8945C121.863 36.889 121.813 36.8785 121.763 36.8633C121.732 36.8546 121.704 36.8354 121.684 36.8085C121.669 36.7863 121.661 36.76 121.661 36.733V33.7031C121.661 33.552 121.661 33.3957 121.661 33.2394C121.661 33.0831 121.679 32.9268 121.692 32.7731C121.602 32.9294 121.505 33.0831 121.4 33.2316C121.295 33.3801 121.19 33.5312 121.083 33.6797L118.898 36.733L118.826 36.8138C118.804 36.8384 118.777 36.8572 118.747 36.8685C118.708 36.8847 118.666 36.8943 118.624 36.8971C118.563 36.9016 118.501 36.9016 118.44 36.8971C118.371 36.902 118.301 36.902 118.232 36.8971C118.189 36.892 118.146 36.8815 118.105 36.8659C118.076 36.8565 118.051 36.8371 118.035 36.8112C118.021 36.7886 118.014 36.7623 118.015 36.7356V31.4575C118.014 31.4307 118.021 31.4044 118.035 31.3819C118.053 31.3551 118.079 31.3349 118.11 31.3246C118.157 31.3067 118.206 31.2953 118.256 31.2907C118.317 31.2907 118.391 31.2907 118.481 31.2907C118.608 31.2838 118.736 31.2987 118.859 31.335C118.888 31.3428 118.913 31.3596 118.932 31.383C118.95 31.4065 118.961 31.4353 118.962 31.4653V34.5134C118.962 34.6645 118.962 34.8156 118.962 34.9641C118.962 35.1126 118.944 35.2637 118.931 35.4122C119.021 35.2637 119.11 35.1204 119.187 34.9771C119.264 34.8338 119.374 34.6957 119.476 34.5603L121.699 31.4653C121.721 31.436 121.745 31.409 121.771 31.3845C121.797 31.3592 121.829 31.3404 121.863 31.3298C121.904 31.3142 121.947 31.3037 121.991 31.2985C122.04 31.2985 122.106 31.2985 122.185 31.2985C122.265 31.2985 122.334 31.2985 122.39 31.2985C122.436 31.3033 122.481 31.3147 122.523 31.3324C122.551 31.345 122.575 31.3647 122.592 31.3897C122.606 31.4153 122.613 31.444 122.613 31.4731L122.615 36.733Z" fill="#484848"/>
<path d="M127.733 35.9255C127.733 35.9907 127.733 36.048 127.733 36.0975C127.731 36.139 127.724 36.1802 127.712 36.2199C127.703 36.2503 127.692 36.2799 127.679 36.3085C127.653 36.3494 127.622 36.3869 127.587 36.4205C127.507 36.4885 127.422 36.5487 127.331 36.6003C127.208 36.6764 127.079 36.7409 126.945 36.7931C126.792 36.8521 126.636 36.8983 126.476 36.9311C126.308 36.9651 126.136 36.9825 125.965 36.9832C125.626 36.9897 125.29 36.9259 124.977 36.7957C124.697 36.6753 124.449 36.4876 124.255 36.2486C124.052 35.9869 123.901 35.6867 123.813 35.3654C123.707 34.9726 123.656 34.5665 123.662 34.1592C123.648 33.7079 123.707 33.2573 123.836 32.8253C123.94 32.4866 124.114 32.1747 124.348 31.9109C124.56 31.6791 124.823 31.5008 125.115 31.3898C125.419 31.273 125.742 31.2147 126.067 31.2179C126.376 31.2189 126.683 31.2763 126.973 31.3872C127.094 31.4333 127.211 31.4918 127.321 31.5618C127.399 31.6114 127.472 31.6681 127.541 31.7311C127.577 31.7644 127.608 31.802 127.635 31.8432C127.655 31.8727 127.67 31.9052 127.679 31.9395C127.692 31.9799 127.7 32.022 127.702 32.0646C127.705 32.1227 127.705 32.181 127.702 32.2391C127.711 32.3486 127.693 32.4586 127.651 32.5596C127.64 32.585 127.623 32.607 127.601 32.623C127.578 32.6391 127.552 32.6487 127.525 32.6508C127.45 32.6419 127.38 32.608 127.326 32.5544C127.235 32.4774 127.141 32.4061 127.042 32.3407C126.912 32.254 126.773 32.1824 126.627 32.1271C126.442 32.0586 126.246 32.026 126.049 32.0307C125.845 32.0192 125.642 32.0611 125.458 32.1523C125.274 32.2435 125.117 32.381 125 32.5518C124.727 33.0236 124.6 33.5685 124.637 34.1149C124.632 34.4147 124.664 34.714 124.731 35.0059C124.784 35.2356 124.878 35.4531 125.01 35.6468C125.125 35.8125 125.28 35.9445 125.461 36.0297C125.653 36.1164 125.862 36.1591 126.072 36.1548C126.268 36.1593 126.463 36.1239 126.645 36.0506C126.796 35.9883 126.94 35.9106 127.075 35.8187C127.195 35.7353 127.295 35.6598 127.379 35.5921C127.431 35.5373 127.498 35.5008 127.571 35.4878C127.596 35.4877 127.621 35.4959 127.64 35.5113C127.663 35.534 127.679 35.5616 127.689 35.5921C127.704 35.6367 127.713 35.6831 127.717 35.7301C127.727 35.7822 127.733 35.8474 127.733 35.9255Z" fill="#484848"/>
<path d="M132.926 35.0529C132.929 35.3122 132.879 35.5693 132.781 35.8084C132.68 36.046 132.524 36.2546 132.325 36.4155C132.089 36.6024 131.82 36.7405 131.532 36.8219C131.157 36.929 130.768 36.9799 130.378 36.973H130.056C129.946 36.973 129.836 36.973 129.728 36.973L129.414 36.9521L129.109 36.9235C129.041 36.9242 128.974 36.9099 128.911 36.8816C128.849 36.8532 128.794 36.8114 128.749 36.7592C128.704 36.7069 128.671 36.6454 128.652 36.5789C128.633 36.5123 128.628 36.4424 128.638 36.3738V31.4656C128.638 31.4372 128.645 31.4093 128.659 31.3848C128.678 31.3595 128.704 31.3397 128.733 31.3275C128.779 31.3074 128.829 31.2951 128.879 31.291C128.94 31.291 129.017 31.291 129.109 31.291C129.201 31.291 129.278 31.291 129.339 31.291C129.39 31.2951 129.439 31.3074 129.485 31.3275C129.515 31.3404 129.541 31.36 129.562 31.3848C129.578 31.4086 129.586 31.4368 129.585 31.4656V33.3179C129.728 33.3179 129.879 33.297 130.045 33.2918C130.212 33.2866 130.378 33.2918 130.557 33.2918C130.92 33.2859 131.282 33.3288 131.634 33.4195C131.901 33.4869 132.152 33.6093 132.371 33.779C132.557 33.9253 132.703 34.1171 132.796 34.3365C132.887 34.5638 132.931 34.8076 132.926 35.0529ZM131.929 35.1181C131.93 34.9697 131.905 34.8222 131.854 34.683C131.801 34.55 131.712 34.4346 131.599 34.3495C131.465 34.2492 131.312 34.1774 131.151 34.1385C130.929 34.0863 130.701 34.0618 130.473 34.0656C130.312 34.0656 130.156 34.0656 129.999 34.0786C129.843 34.0916 129.705 34.0942 129.577 34.1072V36.1289C129.71 36.1445 129.856 36.1601 130.007 36.1706C130.158 36.181 130.332 36.1888 130.519 36.1888C130.892 36.2187 131.265 36.1186 131.576 35.9048C131.691 35.8112 131.783 35.6911 131.844 35.5544C131.906 35.4177 131.935 35.2682 131.929 35.1181Z" fill="#484848"/>
<path d="M139.927 33.9665C139.933 34.3993 139.879 34.8309 139.766 35.2482C139.674 35.593 139.514 35.9149 139.295 36.1939C139.09 36.4514 138.827 36.6536 138.527 36.7827C138.187 36.9215 137.824 36.9897 137.458 36.9833C137.263 36.9848 137.069 36.9682 136.877 36.9338C136.715 36.9043 136.555 36.8625 136.398 36.8088C136.274 36.7653 136.155 36.7085 136.043 36.6394C135.97 36.5951 135.9 36.5446 135.836 36.4883C135.804 36.4615 135.775 36.4319 135.749 36.3997C135.731 36.3727 135.718 36.3428 135.71 36.3112C135.699 36.2704 135.692 36.2285 135.69 36.1861C135.69 36.1366 135.69 36.0741 135.69 36.0011C135.682 35.8986 135.696 35.7956 135.731 35.6989C135.741 35.6766 135.756 35.6575 135.776 35.6437C135.796 35.6299 135.819 35.622 135.843 35.6208C135.908 35.6317 135.968 35.6648 136.012 35.7146C136.103 35.7909 136.201 35.8589 136.304 35.9178C136.451 35.9992 136.605 36.0664 136.764 36.1184C136.988 36.1862 137.22 36.2179 137.453 36.2122C137.655 36.2219 137.856 36.1863 138.043 36.108C138.23 36.0296 138.398 35.9105 138.535 35.7589C138.833 35.3646 138.987 34.8777 138.972 34.3807H136.373C136.346 34.3807 136.32 34.3729 136.297 34.3581C136.274 34.3433 136.256 34.3222 136.245 34.2973C136.208 34.2094 136.193 34.1139 136.199 34.0186C136.193 33.9241 136.208 33.8294 136.245 33.7424C136.256 33.7172 136.274 33.6958 136.297 33.6806C136.319 33.6653 136.346 33.657 136.373 33.6565H138.957C138.938 33.419 138.888 33.1851 138.809 32.9609C138.738 32.7676 138.63 32.5905 138.491 32.4398C138.358 32.2932 138.195 32.1777 138.013 32.1011C137.812 32.0178 137.596 31.9771 137.378 31.9813C137.176 31.9769 136.975 32.0095 136.785 32.0777C136.631 32.1318 136.484 32.2026 136.345 32.2887C136.241 32.3515 136.142 32.4211 136.048 32.4971C136.003 32.5465 135.944 32.5803 135.879 32.5935C135.858 32.5947 135.837 32.5883 135.82 32.5753C135.8 32.5583 135.785 32.5369 135.774 32.5128C135.757 32.4759 135.747 32.4362 135.743 32.3955C135.74 32.333 135.74 32.2704 135.743 32.208C135.74 32.1524 135.74 32.0968 135.743 32.0412C135.743 31.9969 135.756 31.9605 135.764 31.9292C135.771 31.9013 135.78 31.8743 135.792 31.8484C135.81 31.8205 135.832 31.7951 135.856 31.7729C135.915 31.722 135.978 31.675 136.043 31.6322C136.156 31.5587 136.275 31.495 136.398 31.442C136.564 31.3729 136.735 31.318 136.91 31.2779C137.116 31.2304 137.326 31.2077 137.537 31.2102C137.87 31.206 138.2 31.268 138.509 31.3925C138.802 31.5108 139.064 31.6952 139.277 31.9318C139.499 32.1832 139.667 32.4785 139.771 32.7993C139.885 33.1771 139.938 33.5714 139.927 33.9665Z" fill="#484848"/>
<path d="M145.185 36.7672C145.185 36.7897 145.177 36.8116 145.164 36.8297C145.144 36.8504 145.118 36.8648 145.09 36.8714C145.043 36.8859 144.995 36.8947 144.947 36.8974C144.871 36.9021 144.795 36.9021 144.719 36.8974C144.634 36.9022 144.548 36.9022 144.463 36.8974C144.408 36.8917 144.353 36.8812 144.299 36.8662C144.265 36.8565 144.233 36.8387 144.207 36.8141C144.19 36.7928 144.177 36.7679 144.169 36.7411L143.616 35.3786C143.555 35.2216 143.482 35.0699 143.396 34.9253C143.325 34.8061 143.232 34.7018 143.122 34.6179C143.017 34.5392 142.898 34.4817 142.772 34.4485C142.625 34.4122 142.475 34.3947 142.324 34.3964H141.922V36.7646C141.921 36.7866 141.911 36.8072 141.894 36.8219C141.87 36.8451 141.84 36.8613 141.807 36.8688C141.759 36.883 141.709 36.8926 141.659 36.8974C141.588 36.9019 141.517 36.9019 141.447 36.8974C141.376 36.902 141.305 36.902 141.234 36.8974C141.184 36.8929 141.134 36.8833 141.086 36.8688C141.054 36.8626 141.024 36.8462 141.001 36.8219C140.986 36.8069 140.977 36.7863 140.976 36.7646V31.4187C140.976 31.4078 140.978 31.3971 140.983 31.3873C140.987 31.3774 140.993 31.3686 141.001 31.3614C141.026 31.3408 141.055 31.3258 141.086 31.3171C141.135 31.3049 141.184 31.2962 141.234 31.291C141.296 31.291 141.365 31.291 141.447 31.291C141.528 31.291 141.598 31.291 141.659 31.291C141.709 31.2964 141.758 31.3051 141.807 31.3171C141.838 31.327 141.868 31.3419 141.894 31.3614C141.903 31.3684 141.909 31.3772 141.914 31.387C141.919 31.3969 141.922 31.4077 141.922 31.4187V33.6227H142.324C142.459 33.6232 142.593 33.6066 142.723 33.5732C142.842 33.5399 142.954 33.4842 143.053 33.4091C143.155 33.3256 143.241 33.2252 143.309 33.1121C143.395 32.9739 143.467 32.8272 143.524 32.6744L144.005 31.4656C144.012 31.4348 144.026 31.4062 144.046 31.3822C144.07 31.3558 144.1 31.3361 144.133 31.3249C144.182 31.3068 144.232 31.2954 144.284 31.291C144.348 31.291 144.43 31.291 144.54 31.291C144.65 31.291 144.706 31.291 144.765 31.291C144.812 31.2955 144.858 31.3042 144.903 31.3171C144.929 31.3257 144.952 31.341 144.97 31.3614C144.981 31.3785 144.987 31.3983 144.988 31.4187C144.987 31.4557 144.982 31.4924 144.972 31.5281C144.961 31.5741 144.946 31.6194 144.929 31.6636L144.438 32.8255C144.37 32.9987 144.284 33.1638 144.182 33.3179C144.103 33.4374 144.011 33.5475 143.908 33.6461C143.824 33.7279 143.729 33.7972 143.627 33.8519C143.538 33.8981 143.445 33.9365 143.35 33.9666C143.479 34.0109 143.603 34.0676 143.721 34.1359C143.841 34.2052 143.951 34.2901 144.049 34.3886C144.153 34.4927 144.245 34.609 144.322 34.7351C144.414 34.8832 144.493 35.0393 144.558 35.2014L145.126 36.5327C145.14 36.5568 145.152 36.5821 145.162 36.6082C145.162 36.6317 145.162 36.6551 145.18 36.676C145.197 36.6968 145.18 36.7151 145.18 36.7281C145.182 36.7409 145.184 36.754 145.185 36.7672Z" fill="#484848"/>
<path d="M150.826 34.0132C150.831 34.4313 150.782 34.8482 150.681 35.2533C150.597 35.5893 150.451 35.9059 150.251 36.1859C150.065 36.4361 149.824 36.6379 149.547 36.7747C149.247 36.9179 148.919 36.9892 148.588 36.9831C148.445 36.9843 148.302 36.9685 148.163 36.9362C148.03 36.9039 147.902 36.8549 147.782 36.7903C147.649 36.7171 147.525 36.6297 147.411 36.5298C147.288 36.4308 147.155 36.311 147.019 36.1755V38.8172C147.019 38.8458 147.011 38.8739 146.996 38.8979C146.978 38.9242 146.952 38.9441 146.922 38.9553C146.876 38.9744 146.828 38.9867 146.779 38.9917C146.7 38.9964 146.622 38.9964 146.543 38.9917C146.467 38.9964 146.39 38.9964 146.313 38.9917C146.263 38.9864 146.214 38.9742 146.167 38.9553C146.137 38.9449 146.111 38.9248 146.093 38.8979C146.08 38.8732 146.073 38.8454 146.073 38.8172V31.4653C146.071 31.4355 146.077 31.4057 146.09 31.3793C146.107 31.3535 146.131 31.3342 146.16 31.3246C146.201 31.3071 146.245 31.2957 146.29 31.2907C146.344 31.2907 146.41 31.2907 146.487 31.2907C146.564 31.2907 146.633 31.2907 146.684 31.2907C146.729 31.2964 146.773 31.3078 146.815 31.3246C146.842 31.3358 146.866 31.3547 146.884 31.3793C146.899 31.405 146.906 31.4351 146.904 31.4653V32.1713C147.048 32.0209 147.201 31.8783 147.359 31.744C147.495 31.6295 147.642 31.5291 147.797 31.4444C147.941 31.3656 148.094 31.3044 148.252 31.2621C148.412 31.2206 148.576 31.2004 148.741 31.2022C149.074 31.1915 149.405 31.2677 149.701 31.4236C149.963 31.568 150.185 31.7766 150.348 32.0306C150.517 32.3064 150.637 32.6108 150.701 32.9294C150.783 33.2847 150.825 33.6483 150.826 34.0132ZM149.844 34.1252C149.844 33.8635 149.824 33.6022 149.785 33.3436C149.75 33.1106 149.679 32.8847 149.575 32.6741C149.485 32.4872 149.349 32.3268 149.181 32.2078C148.998 32.0851 148.781 32.0232 148.562 32.0306C148.439 32.0301 148.316 32.0495 148.199 32.0879C148.07 32.1282 147.948 32.187 147.835 32.2625C147.696 32.3547 147.566 32.4602 147.446 32.5777C147.294 32.7293 147.152 32.8902 147.019 33.0597V35.1438C147.237 35.4221 147.488 35.6716 147.766 35.8863C147.978 36.0517 148.236 36.1431 148.503 36.1468C148.721 36.1536 148.936 36.0927 149.12 35.9723C149.294 35.8521 149.437 35.6913 149.537 35.5034C149.646 35.2982 149.724 35.0779 149.77 34.8495C149.819 34.6122 149.844 34.3703 149.844 34.1278V34.1252Z" fill="#484848"/>
<path d="M155.79 36.7332C155.791 36.753 155.787 36.7729 155.779 36.791C155.771 36.8091 155.759 36.825 155.744 36.8374C155.707 36.8643 155.664 36.8821 155.619 36.8895C155.541 36.9041 155.462 36.9102 155.383 36.9078C155.304 36.9099 155.224 36.9038 155.145 36.8895C155.098 36.8835 155.053 36.8656 155.015 36.8374C155.002 36.8238 154.991 36.8075 154.985 36.7895C154.978 36.7715 154.975 36.7523 154.976 36.7332V36.2122C154.758 36.4492 154.497 36.6426 154.209 36.7827C153.934 36.9194 153.632 36.9898 153.326 36.9885C153.077 36.9913 152.828 36.9553 152.589 36.8817C152.382 36.8171 152.191 36.7098 152.026 36.5665C151.87 36.4297 151.746 36.2587 151.663 36.0663C151.575 35.8509 151.532 35.6195 151.535 35.3863C151.527 35.1146 151.588 34.8454 151.712 34.6047C151.835 34.3826 152.011 34.1954 152.223 34.0603C152.475 33.9044 152.751 33.795 153.04 33.7372C153.396 33.6607 153.76 33.624 154.124 33.6278H154.836V33.2188C154.838 33.0379 154.818 32.8575 154.774 32.6821C154.738 32.5371 154.667 32.4031 154.57 32.2913C154.468 32.1844 154.343 32.1048 154.204 32.0595C154.026 32.0008 153.84 31.9734 153.654 31.9787C153.441 31.9759 153.229 32.0048 153.024 32.0647C152.857 32.1124 152.694 32.1752 152.538 32.2522C152.397 32.32 152.282 32.3825 152.188 32.4372C152.125 32.4823 152.053 32.5118 151.978 32.5232C151.949 32.5238 151.92 32.5157 151.896 32.4997C151.871 32.4812 151.851 32.4571 151.837 32.4294C151.817 32.3922 151.804 32.3516 151.799 32.3096C151.795 32.2558 151.795 32.2018 151.799 32.148C151.796 32.071 151.803 31.994 151.819 31.9188C151.835 31.8563 151.869 31.8001 151.916 31.7572C151.994 31.6879 152.08 31.6284 152.172 31.5801C152.312 31.5036 152.458 31.4408 152.61 31.3925C152.786 31.3318 152.966 31.2848 153.15 31.2518C153.345 31.2153 153.542 31.197 153.741 31.1971C154.061 31.1896 154.38 31.2327 154.687 31.3248C154.925 31.3969 155.142 31.5265 155.319 31.7025C155.484 31.8749 155.605 32.0861 155.67 32.3174C155.746 32.5973 155.782 32.8868 155.777 33.1771L155.79 36.7332ZM154.849 34.3286H154.04C153.812 34.3256 153.585 34.3483 153.362 34.3963C153.193 34.4319 153.031 34.499 152.886 34.5943C152.767 34.6724 152.671 34.7812 152.607 34.9096C152.546 35.0424 152.516 35.1876 152.518 35.3342C152.512 35.4551 152.532 35.5759 152.576 35.6883C152.62 35.8007 152.687 35.9021 152.773 35.9855C152.973 36.1572 153.229 36.2448 153.49 36.2304C153.733 36.2314 153.972 36.1647 154.181 36.0376C154.431 35.8752 154.656 35.6759 154.849 35.4462V34.3286Z" fill="#484848"/>
<path d="M161.703 36.7333C161.704 36.762 161.696 36.7901 161.68 36.814C161.66 36.8381 161.634 36.8569 161.606 36.8688C161.56 36.8866 161.512 36.898 161.462 36.9026C161.386 36.9074 161.309 36.9074 161.232 36.9026C161.154 36.9075 161.075 36.9075 160.997 36.9026C160.948 36.8984 160.899 36.887 160.854 36.8688C160.824 36.8576 160.799 36.8387 160.779 36.814C160.764 36.7901 160.756 36.762 160.756 36.7333V34.4251H158.121V36.7333C158.122 36.762 158.114 36.7901 158.098 36.814C158.078 36.8381 158.052 36.8569 158.024 36.8688C157.977 36.8866 157.928 36.898 157.878 36.9026C157.799 36.9076 157.721 36.9076 157.643 36.9026C157.567 36.9073 157.491 36.9073 157.415 36.9026C157.364 36.8977 157.314 36.8863 157.266 36.8688C157.237 36.8576 157.212 36.8387 157.192 36.814C157.179 36.7894 157.171 36.7616 157.172 36.7333V31.4656C157.171 31.4372 157.178 31.4093 157.192 31.3848C157.212 31.36 157.238 31.3404 157.266 31.3275C157.314 31.3078 157.364 31.2955 157.415 31.291C157.476 31.291 157.553 31.291 157.643 31.291C157.732 31.291 157.816 31.291 157.878 31.291C157.928 31.2951 157.977 31.3074 158.024 31.3275C158.052 31.3411 158.077 31.3606 158.098 31.3848C158.114 31.4086 158.122 31.4368 158.121 31.4656V33.607H160.756V31.4682C160.755 31.4394 160.763 31.4112 160.779 31.3874C160.799 31.3626 160.825 31.343 160.854 31.3301C160.899 31.3096 160.947 31.2973 160.997 31.2936C161.058 31.2936 161.138 31.2936 161.232 31.2936C161.327 31.2936 161.401 31.2936 161.462 31.2936C161.512 31.2976 161.56 31.3099 161.606 31.3301C161.634 31.3437 161.659 31.3632 161.68 31.3874C161.696 31.4112 161.704 31.4394 161.703 31.4682V36.7333Z" fill="#484848"/>
<path d="M167.007 36.7332C167.008 36.7531 167.004 36.7729 166.996 36.791C166.988 36.8091 166.976 36.825 166.961 36.8374C166.923 36.8643 166.879 36.8821 166.833 36.8896C166.755 36.9043 166.676 36.9104 166.598 36.9078C166.518 36.9099 166.438 36.9038 166.36 36.8896C166.313 36.8844 166.269 36.8664 166.232 36.8374C166.218 36.8244 166.206 36.8082 166.199 36.7902C166.192 36.7721 166.189 36.7526 166.191 36.7332V36.2122C165.976 36.4485 165.72 36.642 165.436 36.7827C165.161 36.9197 164.859 36.9902 164.553 36.9885C164.304 36.9913 164.055 36.9553 163.816 36.8817C163.61 36.8165 163.418 36.7093 163.253 36.5665C163.098 36.4296 162.974 36.2586 162.893 36.0663C162.803 35.8515 162.758 35.6198 162.762 35.3863C162.754 35.1144 162.816 34.845 162.941 34.6048C163.064 34.3825 163.24 34.1952 163.453 34.0603C163.704 33.9045 163.981 33.7951 164.269 33.7372C164.626 33.6607 164.99 33.624 165.354 33.6278H166.068V33.2188C166.07 33.0378 166.048 32.8574 166.004 32.6821C165.968 32.5367 165.898 32.4025 165.799 32.2914C165.699 32.1846 165.574 32.1049 165.436 32.0595C165.258 32.0008 165.071 31.9735 164.883 31.9787C164.671 31.9758 164.46 32.0047 164.256 32.0647C164.088 32.112 163.925 32.1748 163.768 32.2523C163.627 32.32 163.512 32.3825 163.417 32.4373C163.355 32.4824 163.283 32.5119 163.207 32.5232C163.179 32.5238 163.152 32.5156 163.128 32.4998C163.103 32.4814 163.082 32.4573 163.067 32.4294C163.047 32.3923 163.034 32.3516 163.028 32.3096C163.024 32.2558 163.024 32.2018 163.028 32.1481C163.025 32.0711 163.032 31.994 163.049 31.9188C163.065 31.8564 163.099 31.8001 163.146 31.7573C163.224 31.6879 163.31 31.6284 163.402 31.5801C163.542 31.5046 163.688 31.4418 163.839 31.3926C164.016 31.3322 164.196 31.2852 164.379 31.2519C164.574 31.2154 164.772 31.197 164.97 31.1972C165.29 31.1894 165.61 31.2325 165.917 31.3248C166.155 31.397 166.371 31.5266 166.549 31.7026C166.715 31.8743 166.835 32.0857 166.899 32.3174C166.976 32.5972 167.013 32.8867 167.01 33.1771L167.007 36.7332ZM166.065 34.3286H165.254C165.027 34.3257 164.799 34.3484 164.576 34.3964C164.407 34.4319 164.246 34.4991 164.1 34.5944C163.982 34.6732 163.886 34.7818 163.821 34.9096C163.76 35.0424 163.73 35.1876 163.732 35.3342C163.727 35.4551 163.747 35.5757 163.791 35.688C163.835 35.8002 163.902 35.9017 163.988 35.9855C164.187 36.1572 164.443 36.2449 164.704 36.2304C164.947 36.2314 165.186 36.1648 165.395 36.0376C165.645 35.8746 165.871 35.6754 166.065 35.4463V34.3286Z" fill="#484848"/>
<path d="M174.941 35.2123C174.946 35.4676 174.893 35.7206 174.788 35.9522C174.682 36.1708 174.524 36.3583 174.327 36.4967C174.094 36.6553 173.833 36.7684 173.559 36.8301C173.213 36.9101 172.858 36.9477 172.503 36.9422H172.134H171.791L171.461 36.9213L171.136 36.8927C171.072 36.8921 171.009 36.8776 170.951 36.8504C170.892 36.8231 170.84 36.7835 170.798 36.7343C170.756 36.6851 170.724 36.6274 170.705 36.5649C170.686 36.5024 170.681 36.4365 170.689 36.3716V31.8386C170.681 31.7074 170.718 31.5775 170.794 31.4712C170.878 31.3791 170.995 31.3248 171.119 31.3201C171.218 31.3071 171.326 31.2967 171.438 31.2889L171.786 31.2706C171.904 31.2706 172.027 31.2706 172.152 31.255C172.278 31.2394 172.408 31.255 172.539 31.255C172.863 31.2503 173.186 31.2818 173.503 31.3488C173.743 31.3982 173.971 31.4908 174.179 31.6223C174.35 31.7303 174.488 31.8845 174.578 32.0678C174.668 32.2549 174.713 32.4613 174.708 32.6696C174.715 32.9423 174.633 33.2097 174.475 33.4303C174.301 33.6518 174.06 33.8092 173.79 33.8784C174.119 33.9332 174.421 34.1004 174.644 34.3526C174.84 34.5947 174.945 34.8991 174.941 35.2123ZM173.8 32.7686C173.802 32.6502 173.779 32.5328 173.731 32.4247C173.681 32.3177 173.602 32.2273 173.503 32.1642C173.378 32.0863 173.24 32.0324 173.096 32.0053C172.896 31.968 172.693 31.9505 172.49 31.9532C172.311 31.9532 172.145 31.9532 171.996 31.9688C171.848 31.9845 171.72 31.9897 171.618 32.0001V33.6362H172.582C172.899 33.6573 173.215 33.5791 173.488 33.4121C173.589 33.3403 173.67 33.2436 173.725 33.1312C173.78 33.0187 173.805 32.894 173.8 32.7686ZM173.971 35.2305C173.975 35.0891 173.948 34.9486 173.892 34.8189C173.836 34.6973 173.747 34.5943 173.636 34.5219C173.499 34.4362 173.347 34.377 173.188 34.3474C172.975 34.3048 172.758 34.2847 172.541 34.2875H171.618V36.1528C171.689 36.1528 171.766 36.1736 171.845 36.1814L172.086 36.1971L172.342 36.2127H172.569C172.784 36.216 172.997 36.1933 173.206 36.145C173.364 36.1087 173.513 36.0424 173.646 35.9496C173.757 35.8702 173.846 35.7623 173.902 35.6369C173.957 35.5088 173.985 35.3703 173.984 35.2305H173.971Z" fill="#484848"/>
<path d="M182.73 36.473C182.73 36.5359 182.724 36.5988 182.712 36.6605C182.703 36.7036 182.687 36.7449 182.666 36.783C182.649 36.811 182.627 36.8344 182.599 36.8507C182.575 36.8632 182.549 36.8694 182.522 36.8689H178.641C178.615 36.8697 178.589 36.8634 178.567 36.8507C178.54 36.8329 178.518 36.8099 178.5 36.783C178.477 36.7456 178.46 36.7041 178.452 36.6605C178.438 36.599 178.432 36.536 178.434 36.473C178.432 36.4117 178.438 36.3504 178.452 36.2906C178.46 36.247 178.475 36.2049 178.495 36.1655C178.509 36.1356 178.53 36.1097 178.556 36.09C178.581 36.0725 178.611 36.0634 178.641 36.0639H180.191V30.3116L178.756 31.1844C178.701 31.2166 178.641 31.2403 178.579 31.2547C178.561 31.259 178.542 31.2589 178.524 31.2544C178.506 31.2498 178.489 31.241 178.475 31.2287C178.442 31.1937 178.423 31.1487 178.418 31.101C178.409 31.0276 178.405 30.9536 178.405 30.8796C178.402 30.8232 178.402 30.7666 178.405 30.7102C178.41 30.6703 178.418 30.631 178.431 30.593C178.443 30.5635 178.459 30.5362 178.48 30.5122C178.506 30.4863 178.534 30.4627 178.564 30.4419L180.276 29.3243C180.293 29.3121 180.312 29.3025 180.332 29.2956L180.419 29.2722C180.459 29.2636 180.499 29.2583 180.539 29.2565H180.711C180.787 29.2517 180.864 29.2517 180.941 29.2565C180.99 29.2614 181.038 29.2719 181.084 29.2878C181.113 29.2957 181.138 29.3143 181.153 29.3399C181.165 29.3604 181.171 29.3838 181.171 29.4076V36.0561H182.515C182.545 36.0558 182.576 36.0649 182.602 36.0822C182.629 36.1016 182.652 36.1275 182.668 36.1577C182.685 36.1978 182.698 36.2398 182.706 36.2828C182.721 36.3452 182.728 36.4089 182.73 36.473Z" fill="#484848"/>
<path d="M190.413 36.7672C190.413 36.7897 190.406 36.8116 190.392 36.8297C190.372 36.8504 190.346 36.8648 190.318 36.8714C190.272 36.8859 190.224 36.8947 190.175 36.8974C190.099 36.9021 190.023 36.9021 189.947 36.8974C189.862 36.9022 189.777 36.9022 189.691 36.8974C189.636 36.8917 189.581 36.8812 189.528 36.8662C189.493 36.8572 189.461 36.8392 189.436 36.8141C189.417 36.7929 189.403 36.7681 189.395 36.7411L188.845 35.3786C188.784 35.2216 188.71 35.0699 188.624 34.9253C188.552 34.8066 188.46 34.7024 188.351 34.6179C188.246 34.5392 188.127 34.4817 188 34.4485C187.851 34.409 187.698 34.3888 187.545 34.3886H187.143V36.7567C187.141 36.7788 187.131 36.7994 187.115 36.8141C187.091 36.8373 187.061 36.8535 187.028 36.861C186.979 36.8752 186.93 36.8848 186.88 36.8896C186.809 36.8941 186.738 36.8941 186.667 36.8896C186.596 36.8942 186.526 36.8942 186.455 36.8896C186.404 36.8848 186.353 36.8752 186.304 36.861C186.272 36.8548 186.244 36.8383 186.222 36.8141C186.206 36.7991 186.197 36.7785 186.196 36.7567V31.4187C186.196 31.4078 186.199 31.3971 186.203 31.3873C186.208 31.3774 186.214 31.3686 186.222 31.3614C186.246 31.3408 186.274 31.3257 186.304 31.3171C186.354 31.3052 186.404 31.2965 186.455 31.291C186.514 31.291 186.585 31.291 186.667 31.291C186.749 31.291 186.818 31.291 186.88 31.291C186.929 31.2964 186.979 31.3051 187.028 31.3171C187.059 31.327 187.088 31.3419 187.115 31.3614C187.123 31.3684 187.13 31.3772 187.135 31.387C187.14 31.3969 187.142 31.4077 187.143 31.4187V33.6227H187.545C187.679 33.6232 187.813 33.6066 187.944 33.5732C188.063 33.5399 188.175 33.4842 188.274 33.4091C188.376 33.3264 188.463 33.2258 188.53 33.1121C188.618 32.9746 188.69 32.8278 188.747 32.6744L189.228 31.4656C189.235 31.4348 189.249 31.4062 189.269 31.3822C189.293 31.3558 189.323 31.3361 189.356 31.3249C189.405 31.3068 189.456 31.2954 189.507 31.291C189.571 31.291 189.653 31.291 189.763 31.291C189.873 31.291 189.929 31.291 189.988 31.291C190.035 31.296 190.081 31.3047 190.126 31.3171C190.152 31.3257 190.175 31.341 190.193 31.3614C190.204 31.3785 190.21 31.3983 190.211 31.4187C190.21 31.4557 190.205 31.4924 190.195 31.5281C190.184 31.5741 190.169 31.6194 190.152 31.6636L189.666 32.8255C189.6 32.9992 189.514 33.1644 189.41 33.3179C189.332 33.4373 189.241 33.5475 189.139 33.6461C189.055 33.7279 188.96 33.7972 188.857 33.8519C188.769 33.8981 188.676 33.9365 188.581 33.9666C188.71 34.0109 188.834 34.0676 188.952 34.1359C189.067 34.2045 189.173 34.2877 189.267 34.3834C189.371 34.4875 189.463 34.6038 189.54 34.7299C189.632 34.878 189.711 35.0341 189.776 35.1962L190.344 36.5275C190.358 36.5516 190.37 36.5769 190.38 36.603C190.387 36.6251 190.392 36.6477 190.395 36.6708V36.7229C190.403 36.7369 190.409 36.7518 190.413 36.7672Z" fill="#484848"/>
<path d="M195.543 36.7331C195.543 36.7618 195.535 36.79 195.52 36.8139C195.5 36.8385 195.475 36.8574 195.446 36.8686C195.4 36.8868 195.352 36.8982 195.302 36.9024C195.226 36.9072 195.149 36.9072 195.072 36.9024C194.994 36.9073 194.915 36.9073 194.837 36.9024C194.787 36.8978 194.738 36.8864 194.691 36.8686C194.661 36.8574 194.635 36.8385 194.614 36.8139C194.599 36.79 194.591 36.7618 194.591 36.7331V32.1297H193.174C193.112 32.7497 193.039 33.3012 192.954 33.784C192.88 34.2102 192.783 34.632 192.664 35.0475C192.575 35.3617 192.453 35.6656 192.301 35.9541C192.186 36.1743 192.037 36.3747 191.861 36.5481C191.715 36.6916 191.541 36.8017 191.349 36.8712C191.159 36.9399 190.958 36.9742 190.756 36.9728C190.725 36.9722 190.695 36.966 190.666 36.9545C190.64 36.9396 190.62 36.9168 190.607 36.8894C190.589 36.8481 190.577 36.8042 190.572 36.7592C190.567 36.6854 190.567 36.6114 190.572 36.5377C190.572 36.4465 190.572 36.3684 190.572 36.3111C190.575 36.2632 190.585 36.2159 190.6 36.1704C190.61 36.1416 190.629 36.1169 190.653 36.1C190.677 36.0879 190.704 36.0816 190.73 36.0818C190.856 36.0822 190.979 36.0519 191.091 35.9932C191.219 35.9192 191.329 35.8168 191.413 35.6936C191.529 35.5247 191.623 35.3418 191.695 35.1491C191.796 34.8807 191.876 34.6045 191.935 34.3233C192.009 33.995 192.076 33.6121 192.143 33.1744C192.209 32.7367 192.268 32.2313 192.327 31.6634C192.327 31.57 192.356 31.479 192.409 31.4028C192.434 31.3738 192.466 31.351 192.501 31.3361C192.537 31.3213 192.575 31.3147 192.613 31.3169H195.267C195.306 31.3146 195.346 31.3211 195.383 31.3359C195.42 31.3507 195.454 31.3736 195.481 31.4028C195.538 31.4768 195.566 31.5698 195.558 31.6634L195.543 36.7331Z" fill="#484848"/>
<path d="M201.548 36.7331C201.548 36.76 201.54 36.7863 201.525 36.8086C201.506 36.8343 201.48 36.8534 201.451 36.8633C201.404 36.8787 201.356 36.8892 201.307 36.8946C201.154 36.912 201 36.912 200.847 36.8946C200.797 36.8891 200.747 36.8786 200.698 36.8633C200.666 36.8547 200.637 36.8355 200.617 36.8086C200.602 36.7863 200.594 36.76 200.594 36.7331V33.7032C200.594 33.5521 200.594 33.3958 200.594 33.2395C200.594 33.0832 200.609 32.9269 200.622 32.7732C200.532 32.9295 200.437 33.0832 200.333 33.2317L200.013 33.6798L197.833 36.7331L197.761 36.8138C197.738 36.8379 197.71 36.8566 197.679 36.8686C197.64 36.8848 197.599 36.8944 197.557 36.8972C197.495 36.9019 197.434 36.9019 197.372 36.8972C197.303 36.9021 197.234 36.9021 197.165 36.8972C197.121 36.8914 197.079 36.8809 197.037 36.8659C197.008 36.8565 196.984 36.8372 196.968 36.8112C196.955 36.7882 196.948 36.7622 196.948 36.7357V31.4575C196.948 31.431 196.955 31.405 196.968 31.382C196.986 31.3551 197.012 31.335 197.042 31.3247C197.089 31.3068 197.138 31.2954 197.188 31.2908C197.249 31.2908 197.326 31.2908 197.413 31.2908C197.541 31.2836 197.669 31.2986 197.792 31.3351C197.82 31.3428 197.846 31.3597 197.864 31.3831C197.882 31.4065 197.893 31.4354 197.894 31.4654V34.5134C197.894 34.6645 197.894 34.8157 197.894 34.9641C197.894 35.1126 197.876 35.2637 197.866 35.4122C197.953 35.2637 198.043 35.1205 198.122 34.9772C198.201 34.8339 198.309 34.6958 198.411 34.5603L200.635 31.4654C200.656 31.4361 200.68 31.409 200.706 31.3846C200.733 31.3604 200.764 31.3418 200.798 31.3299C200.84 31.3143 200.882 31.3038 200.926 31.2986C200.977 31.2986 201.041 31.2986 201.123 31.2986C201.205 31.2986 201.272 31.2986 201.325 31.2986C201.371 31.3033 201.416 31.3147 201.458 31.3325C201.487 31.3436 201.511 31.3637 201.527 31.3898C201.541 31.4154 201.548 31.4441 201.548 31.4732V36.7331Z" fill="#484848"/>
<path d="M207.167 36.7672C207.166 36.7897 207.159 36.8116 207.146 36.8297C207.126 36.8504 207.1 36.8648 207.072 36.8714C207.025 36.8859 206.977 36.8947 206.929 36.8974C206.853 36.9021 206.777 36.9021 206.701 36.8974C206.616 36.9022 206.53 36.9022 206.445 36.8974C206.39 36.892 206.335 36.8815 206.281 36.8662C206.247 36.8565 206.215 36.8387 206.189 36.8141C206.171 36.7929 206.157 36.7681 206.148 36.7411L205.598 35.3786C205.537 35.2216 205.464 35.0699 205.378 34.9253C205.306 34.8066 205.213 34.7024 205.104 34.6179C204.999 34.5392 204.88 34.4817 204.754 34.4485C204.607 34.4122 204.457 34.3947 204.306 34.3964H203.904V36.7646C203.903 36.7866 203.893 36.8072 203.876 36.8219C203.852 36.8451 203.822 36.8613 203.789 36.8688C203.741 36.883 203.691 36.8926 203.641 36.8974C203.57 36.9019 203.499 36.9019 203.428 36.8974C203.358 36.902 203.287 36.902 203.216 36.8974C203.165 36.8926 203.115 36.883 203.065 36.8688C203.034 36.8626 203.005 36.8461 202.983 36.8219C202.968 36.8069 202.959 36.7863 202.958 36.7646V31.4187C202.958 31.4078 202.96 31.3971 202.965 31.3873C202.969 31.3774 202.975 31.3686 202.983 31.3614C203.007 31.3408 203.035 31.3257 203.065 31.3171C203.115 31.3052 203.165 31.2965 203.216 31.291C203.278 31.291 203.347 31.291 203.428 31.291C203.51 31.291 203.579 31.291 203.641 31.291C203.691 31.2964 203.74 31.3051 203.789 31.3171C203.82 31.327 203.85 31.3419 203.876 31.3614C203.885 31.3684 203.891 31.3772 203.896 31.387C203.901 31.3969 203.904 31.4077 203.904 31.4187V33.6227H204.306C204.441 33.6232 204.575 33.6066 204.705 33.5732C204.824 33.5399 204.936 33.4842 205.035 33.4091C205.137 33.3264 205.224 33.2258 205.291 33.1121C205.379 32.9746 205.452 32.8278 205.509 32.6744L205.99 31.4656C205.996 31.4348 206.01 31.4062 206.031 31.3822C206.053 31.3558 206.082 31.336 206.115 31.3249C206.165 31.3071 206.216 31.2958 206.269 31.291C206.332 31.291 206.414 31.291 206.524 31.291C206.634 31.291 206.693 31.291 206.752 31.291C206.799 31.296 206.845 31.3047 206.89 31.3171C206.916 31.3257 206.939 31.341 206.957 31.3614C206.968 31.3785 206.974 31.3983 206.975 31.4187C206.974 31.4557 206.969 31.4924 206.959 31.5281C206.948 31.5741 206.933 31.6194 206.916 31.6636L206.419 32.8255C206.352 32.9987 206.266 33.1638 206.164 33.3179C206.084 33.4368 205.992 33.5469 205.89 33.6461C205.806 33.7279 205.711 33.7972 205.608 33.8519C205.519 33.8977 205.427 33.936 205.332 33.9666C205.461 34.0114 205.585 34.0681 205.703 34.1359C205.818 34.2045 205.924 34.2877 206.018 34.3834C206.122 34.4875 206.214 34.6038 206.292 34.7299C206.383 34.878 206.462 35.0341 206.527 35.1962L207.095 36.5275C207.109 36.5516 207.121 36.5769 207.131 36.603C207.138 36.6251 207.143 36.6477 207.146 36.6708V36.7229C207.164 36.7333 207.167 36.7567 207.167 36.7672Z" fill="#484848"/>
<path d="M12.3119 0V5.96854H5.8617V12.5363H-3.05176e-05V0H12.3119Z" fill="#7421B0"/>
<path d="M-3.05176e-05 25.4766H5.8617V32.0417H12.3119V38.0102H-3.05176e-05V25.4766Z" fill="#7421B0"/>
<path d="M25.0204 38.0102V32.0417H31.4681V25.4766H37.3298V38.0102H25.0204Z" fill="#7421B0"/>
<path d="M37.3298 12.5363H31.4681V5.96854H25.0204V0H37.3298V12.5363Z" fill="#7421B0"/>
</svg>
